<svg width="64" height="64" viewBox="0 0 64 64" fill="none" xmlns="http://www.w3.org/2000/svg">
<g clip-path="url(#clip0_2_2657)">
<path d="M32.0597 15.9395C28.9209 15.9375 25.852 16.8663 23.2411 18.6085C20.6302 20.3507 18.5945 22.8279 17.3916 25.727C16.1886 28.6261 15.8723 31.8169 16.4827 34.8957C17.0931 37.9746 18.6028 40.8033 20.8208 43.0242C23.0389 45.245 25.8657 46.7583 28.9438 47.3726C32.0219 47.9868 35.213 47.6746 38.1136 46.4752C41.0143 45.2759 43.4941 43.2434 45.2396 40.6347C46.985 38.026 47.9177 34.9582 47.9197 31.8195C47.921 29.7354 47.5118 27.6714 46.7155 25.7455C45.9192 23.8196 44.7513 22.0693 43.2786 20.5947C41.8058 19.1201 40.0571 17.9501 38.1321 17.1513C36.2072 16.3526 34.1438 15.9408 32.0597 15.9395ZM32.0597 43.0795C29.8307 43.0814 27.6512 42.4224 25.7967 41.1857C23.9423 39.949 22.4962 38.1901 21.6414 36.1315C20.7866 34.073 20.5614 31.8071 20.9943 29.6206C21.4272 27.434 22.4988 25.425 24.0735 23.8474C25.6483 22.2699 27.6554 21.1948 29.8412 20.758C32.027 20.3212 34.2932 20.5423 36.3533 21.3935C38.4134 22.2447 40.1748 23.6876 41.4148 25.5399C42.6548 27.3921 43.3177 29.5705 43.3197 31.7995C43.321 33.2795 43.0308 34.7452 42.4656 36.1131C41.9005 37.4809 41.0714 38.724 40.0259 39.7715C38.9803 40.8189 37.7386 41.6502 36.3718 42.2178C35.0049 42.7853 33.5397 43.0781 32.0597 43.0795Z" fill="#D9E1E4"/>
<path d="M45.8998 55.24C45.1529 54.8539 44.3371 54.619 43.4992 54.5487C42.6613 54.4785 41.8177 54.5743 41.0169 54.8307C40.2161 55.0871 39.4738 55.4991 38.8325 56.0429C38.1912 56.5868 37.6636 57.2518 37.2798 58C37.1797 58.1987 37.0896 58.4023 37.0098 58.61C36.5163 59.8246 35.661 60.858 34.5601 61.5699C33.4592 62.2819 32.166 62.638 30.8558 62.59C29.5457 62.542 28.282 62.0921 27.2362 61.3014C26.1904 60.5107 25.4131 59.4175 25.0098 58.17C24.4996 56.5555 23.3694 55.2096 21.8676 54.4277C20.3658 53.6459 18.615 53.492 16.9998 54C16.7893 54.0696 16.5823 54.1497 16.3798 54.24C15.1679 54.7603 13.8249 54.8934 12.5344 54.6213C11.244 54.3492 10.0691 53.685 9.1705 52.7196C8.27191 51.7543 7.6935 50.5349 7.51438 49.2282C7.33526 47.9216 7.56418 46.5915 8.16983 45.42C8.95277 43.9121 9.10501 42.155 8.5931 40.5349C8.0812 38.9149 6.94703 37.5643 5.43983 36.78L4.85983 36.52C3.64496 36.0274 2.611 35.173 1.8982 34.0727C1.1854 32.9725 0.828248 31.6796 0.875194 30.3695C0.92214 29.0594 1.37091 27.7954 2.16063 26.749C2.95035 25.7026 4.04281 24.9244 5.28983 24.52C6.9041 24.0115 8.25124 22.8843 9.03649 21.385C9.82173 19.8858 9.98114 18.1365 9.47983 16.52C9.4097 16.2841 9.32281 16.0535 9.21983 15.83C8.6946 14.6208 8.55561 13.2788 8.82189 11.9876C9.08816 10.6964 9.74669 9.51895 10.7075 8.61617C11.6682 7.71339 12.8844 7.12935 14.1897 6.94388C15.4949 6.75842 16.8256 6.98058 17.9998 7.57999C18.7444 7.96759 19.558 8.2047 20.3942 8.27777C21.2304 8.35084 22.0729 8.25844 22.8734 8.00585C23.6738 7.75326 24.4167 7.34542 25.0596 6.80564C25.7024 6.26587 26.2326 5.60473 26.6198 4.85999C26.7199 4.66811 26.8101 4.47118 26.8898 4.26999C27.3825 3.05511 28.2369 2.02115 29.3371 1.30835C30.4373 0.595552 31.7302 0.238404 33.0403 0.28535C34.3504 0.332296 35.6144 0.781064 36.6608 1.57079C37.7072 2.36051 38.4854 3.45297 38.8898 4.69999C39.1441 5.50921 39.5565 6.25991 40.1031 6.90859C40.6496 7.55726 41.3195 8.091 42.0739 8.47888C42.8282 8.86675 43.6521 9.10105 44.4977 9.16819C45.3432 9.23533 46.1937 9.13397 46.9998 8.86999L47.5898 8.64999C48.8019 8.1233 50.1475 7.9854 51.4413 8.25526C52.735 8.52513 53.9132 9.18949 54.8137 10.1568C55.7141 11.1242 56.2925 12.3469 56.4691 13.6567C56.6457 14.9664 56.4119 16.2987 55.7998 17.47C55.4121 18.2132 55.1746 19.0255 55.1009 19.8606C55.0273 20.6956 55.1189 21.537 55.3706 22.3366C55.6223 23.1362 56.0291 23.8784 56.5677 24.5207C57.1064 25.163 57.7663 25.6929 58.5098 26.08C58.7029 26.1874 58.9035 26.281 59.1098 26.36C60.3202 26.8568 61.3492 27.7127 62.0583 28.8122C62.7673 29.9118 63.1223 31.2023 63.0755 32.5098C63.0286 33.8173 62.5821 35.0791 61.7962 36.1251C61.0103 37.1711 59.9226 37.9511 58.6798 38.36C57.8799 38.6105 57.1372 39.0163 56.4941 39.554C55.8511 40.0917 55.3203 40.7509 54.9321 41.4938C54.5439 42.2368 54.3059 43.0489 54.2317 43.8839C54.1576 44.7188 54.2487 45.5602 54.4998 46.36C54.5698 46.58 54.6498 46.79 54.7398 47C55.2672 48.2103 55.4073 49.5541 55.141 50.8472C54.8747 52.1403 54.2151 53.3194 53.2524 54.2229C52.2898 55.1264 51.0713 55.7101 49.7639 55.8939C48.4566 56.0778 47.1244 55.8529 45.9498 55.25L45.8998 55.24Z" fill="#D9E1E4"/>
<path d="M38.1297 3.68982C37.1705 3.16558 36.0926 2.89697 34.9997 2.90982C33.7199 2.89183 32.4652 3.26529 31.4036 3.98017C30.342 4.69505 29.5242 5.71723 29.0597 6.90982C28.4339 8.48557 27.2084 9.74862 25.6523 10.4217C24.0961 11.0948 22.3365 11.1229 20.7597 10.4998C20.5585 10.42 20.3615 10.3299 20.1697 10.2298C18.6589 9.45618 16.9029 9.31333 15.287 9.83261C13.671 10.3519 12.327 11.4909 11.5497 12.9998C11.0778 13.9009 10.8308 14.9027 10.8297 15.9198C10.834 16.8042 11.0177 17.6785 11.3697 18.4898C12.0401 20.039 12.0693 21.7908 11.4508 23.3615C10.8323 24.9322 9.61645 26.1937 8.06966 26.8698C7.85966 26.9598 7.63966 27.0398 7.42966 27.1098C6.13549 27.5087 5.00492 28.3152 4.20658 29.4091C3.40823 30.503 2.98488 31.8257 2.99966 33.1798C2.99821 34.2511 3.26279 35.306 3.76966 36.2498C2.68069 35.643 1.79302 34.7308 1.21598 33.6258C0.638944 32.5207 0.397751 31.271 0.522113 30.0306C0.646474 28.7902 1.13096 27.6132 1.91588 26.6447C2.70081 25.6762 3.75189 24.9584 4.93966 24.5798C6.23689 24.1646 7.36876 23.3483 8.17212 22.2484C8.97548 21.1485 9.40882 19.8219 9.40966 18.4598C9.2795 17.5932 8.98778 16.7588 8.54966 15.9998C8.28114 15.1539 8.20932 14.2578 8.33966 13.3798C8.35193 12.2841 8.64445 11.2098 9.18937 10.2591C9.73429 9.30842 10.5135 8.51304 11.4527 7.94868C12.392 7.38432 13.4601 7.06976 14.5553 7.03495C15.6505 7.00014 16.7365 7.24624 17.7097 7.74982C18.6152 8.22049 19.6191 8.47061 20.6397 8.47982C21.9247 8.48782 23.1828 8.11118 24.252 7.39835C25.3213 6.68552 26.1528 5.6691 26.6397 4.47982C27.084 3.35545 27.8383 2.38021 28.8147 1.66737C29.7912 0.954529 30.9499 0.533335 32.1562 0.452705C33.3625 0.372076 34.567 0.635319 35.6296 1.21186C36.6923 1.78841 37.5696 2.65459 38.1597 3.70982L38.1297 3.68982Z" fill="white"/>
<path d="M62.2096 32.6802C62.2246 34.0461 61.7973 35.3801 60.9917 36.4831C60.1861 37.5861 59.0452 38.399 57.7396 38.8002C56.8798 39.0604 56.0848 39.4994 55.4067 40.0885C54.7286 40.6777 54.1827 41.4035 53.805 42.2185C53.4272 43.0335 53.2261 43.9192 53.2148 44.8174C53.2036 45.7156 53.3824 46.606 53.7396 47.4302C54.2622 48.6339 54.4003 49.9695 54.1351 51.2546C53.8699 52.5397 53.2142 53.7115 52.2579 54.6099C51.3015 55.5083 50.091 56.0895 48.7918 56.2739C47.4926 56.4583 46.1682 56.237 44.9996 55.6402C43.4905 54.8581 41.7325 54.7073 40.1122 55.2211C38.492 55.735 37.1421 56.8713 36.3596 58.3802C36.2587 58.5669 36.1718 58.7607 36.0996 58.9602C35.6117 60.1766 34.7616 61.2135 33.6646 61.9304C32.5675 62.6474 31.2766 63.0096 29.9667 62.9682C28.6568 62.9267 27.3913 62.4834 26.3418 61.6985C25.2923 60.9136 24.5096 59.825 24.0996 58.5802C55.4396 49.4502 53.9996 28.7102 49.3496 8.49023C50.4349 8.52349 51.494 8.83102 52.4283 9.38414C53.3626 9.93726 54.1417 10.718 54.6928 11.6535C55.2439 12.589 55.5491 13.6488 55.58 14.7341C55.611 15.8194 55.3666 16.8949 54.8696 17.8602C54.3889 18.762 54.1382 19.7684 54.1396 20.7902C54.1303 22.0756 54.5064 23.3342 55.2194 24.4037C55.9324 25.4732 56.9495 26.3045 58.1396 26.7902C59.3405 27.2356 60.3752 28.0398 61.1033 29.0935C61.8315 30.1472 62.2177 31.3994 62.2096 32.6802Z" fill="#94B5BF"/>
<path d="M8.62945 14.2902C9.01053 14.2902 9.31945 13.9812 9.31945 13.6002C9.31945 13.2191 9.01053 12.9102 8.62945 12.9102C8.24838 12.9102 7.93945 13.2191 7.93945 13.6002C7.93945 13.9812 8.24838 14.2902 8.62945 14.2902Z" fill="#3E3126"/>
<path d="M24.7798 7.60949C25.1609 7.60949 25.4698 7.30057 25.4698 6.91949C25.4698 6.53842 25.1609 6.22949 24.7798 6.22949C24.3988 6.22949 24.0898 6.53842 24.0898 6.91949C24.0898 7.30057 24.3988 7.60949 24.7798 7.60949Z" fill="#3E3126"/>
<path d="M6.66949 39.0001C7.05057 39.0001 7.35949 38.6912 7.35949 38.3101C7.35949 37.929 7.05057 37.6201 6.66949 37.6201C6.28842 37.6201 5.97949 37.929 5.97949 38.3101C5.97949 38.6912 6.28842 39.0001 6.66949 39.0001Z" fill="#3E3126"/>
<path d="M31.66 47.5398C40.4248 47.5398 47.53 40.4346 47.53 31.6698C47.53 22.905 40.4248 15.7998 31.66 15.7998C22.8953 15.7998 15.79 22.905 15.79 31.6698C15.79 40.4346 22.8953 47.5398 31.66 47.5398Z" fill="#94B5BF"/>
<path d="M31.6594 48.1699C28.396 48.1719 25.2053 47.2061 22.4908 45.3947C19.7763 43.5833 17.6599 41.0077 16.4092 37.9934C15.1586 34.9792 14.8298 31.6618 15.4645 28.4607C16.0992 25.2597 17.6689 22.3187 19.9751 20.0097C22.2813 17.7008 25.2203 16.1275 28.4206 15.4889C31.6209 14.8503 34.9387 15.1751 37.9545 16.4221C40.9702 17.6691 43.5484 19.7824 45.3631 22.4947C47.1778 25.207 48.1474 28.3965 48.1494 31.6599C48.1441 36.0336 46.4057 40.2269 43.315 43.3214C40.2242 46.4159 36.0331 48.1593 31.6594 48.1699ZM31.6594 16.4399C28.6452 16.4379 25.6981 17.3298 23.1908 19.0028C20.6835 20.6757 18.7286 23.0546 17.5733 25.8386C16.418 28.6226 16.1142 31.6866 16.7003 34.6433C17.2864 37.5999 18.7361 40.3164 20.866 42.4492C22.996 44.5819 25.7106 46.0352 28.6664 46.6251C31.6223 47.2151 34.6868 46.9153 37.4723 45.7637C40.2578 44.612 42.6392 42.6602 44.3155 40.1551C45.9917 37.65 46.8874 34.7041 46.8894 31.6899C46.8894 27.6488 45.2855 23.773 42.4299 20.9136C39.5743 18.0543 35.7005 16.4452 31.6594 16.4399Z" fill="#3E3126"/>
<path d="M31.64 50.9999C27.8331 51.0118 24.1082 49.8946 20.9363 47.7897C17.7643 45.6848 15.2876 42.6866 13.8194 39.1743C12.3512 35.662 11.9573 31.7932 12.6876 28.057C13.418 24.3209 15.2397 20.8852 17.9224 18.1842C20.6052 15.4833 24.0285 13.6385 27.7596 12.8829C31.4908 12.1274 35.3621 12.4951 38.8843 13.9396C42.4065 15.3841 45.4213 17.8404 47.5475 20.9981C49.6738 24.1558 50.8161 27.8731 50.83 31.6799V31.7499C50.83 36.845 48.8101 41.7322 45.213 45.3406C41.6159 48.9489 36.735 50.984 31.64 50.9999ZM31.64 13.8699C28.1038 13.8581 24.6435 14.8945 21.6961 16.8483C18.7486 18.802 16.4463 21.5854 15.0799 24.8469C13.7135 28.1084 13.3443 31.7017 14.0189 35.1729C14.6935 38.6441 16.3817 41.8375 18.8703 44.3498C21.3588 46.8621 24.5361 48.5805 28.0007 49.288C31.4654 49.9956 35.062 49.6605 38.3363 48.3251C41.6106 46.9897 44.4158 44.7139 46.3974 41.7851C48.379 38.8563 49.4482 35.406 49.47 31.8699V31.8099C49.4792 29.4602 49.0251 27.1317 48.1338 24.9576C47.2425 22.7835 45.9314 20.8063 44.2755 19.1393C42.6196 17.4722 40.6513 16.1478 38.4832 15.242C36.3151 14.3361 33.9897 13.8665 31.64 13.8599V13.8699Z" fill="#94B5BF"/>
<path opacity="0.3" d="M31.66 47.5799C28.5213 47.5799 25.453 46.6491 22.8431 44.9053C20.2333 43.1615 18.1992 40.6829 16.9981 37.783C15.7969 34.8832 15.4826 31.6922 16.095 28.6138C16.7073 25.5353 18.2188 22.7075 20.4383 20.4881C22.6577 18.2686 25.4855 16.7571 28.564 16.1448C31.6424 15.5324 34.8334 15.8467 37.7332 17.0479C40.6331 18.249 43.1117 20.2831 44.8555 22.893C46.5993 25.5028 47.53 28.5711 47.53 31.7098C47.5221 35.9164 45.8476 39.9484 42.8731 42.9229C39.8986 45.8974 35.8666 47.5719 31.66 47.5799ZM31.66 17.4799C28.8436 17.4779 26.0899 18.3111 23.747 19.8742C21.4042 21.4372 19.5775 23.6599 18.4978 26.2612C17.4182 28.8625 17.1342 31.7255 17.6817 34.4881C18.2292 37.2508 19.5837 39.7891 21.5738 41.782C23.5639 43.7749 26.1003 45.1329 28.8622 45.6843C31.6241 46.2357 34.4874 45.9557 37.0902 44.8797C39.693 43.8038 41.9183 41.9801 43.4846 39.6395C45.051 37.2988 45.8881 34.5463 45.89 31.7298C45.8953 29.8568 45.5313 28.0012 44.8187 26.2689C44.1062 24.5367 43.0592 22.962 41.7375 21.6348C40.4159 20.3076 38.8456 19.2539 37.1164 18.5341C35.3872 17.8143 33.5331 17.4425 31.66 17.4399V17.4799Z" fill="#3E3126"/>
<path d="M31.5901 42.73C37.8088 42.73 42.8501 37.6887 42.8501 31.47C42.8501 25.2512 37.8088 20.21 31.5901 20.21C25.3714 20.21 20.3301 25.2512 20.3301 31.47C20.3301 37.6887 25.3714 42.73 31.5901 42.73Z" fill="white"/>
<path d="M4.50986 37.2494H4.30986C2.99726 36.7121 1.8811 35.7851 1.11207 34.5934C0.34304 33.4017 -0.0418339 32.0027 0.00940914 30.5854C0.0606522 29.168 0.545545 27.8005 1.39863 26.6675C2.25171 25.5344 3.43189 24.6904 4.77986 24.2494C6.26372 23.7786 7.49979 22.7376 8.21617 21.3555C8.93255 19.9733 9.07057 18.3632 8.59986 16.8794C8.53986 16.6894 8.46986 16.5094 8.39986 16.3294C8.37156 16.2657 8.35609 16.197 8.35434 16.1274C8.3526 16.0577 8.36461 15.9884 8.38969 15.9234C8.41477 15.8583 8.45242 15.7989 8.5005 15.7485C8.54857 15.698 8.60613 15.6575 8.66986 15.6294C8.73148 15.6011 8.79812 15.5855 8.86586 15.5833C8.93361 15.5811 9.00112 15.5924 9.06443 15.6166C9.12774 15.6408 9.18559 15.6774 9.2346 15.7243C9.28361 15.7711 9.32279 15.8272 9.34986 15.8894C10.0796 17.5749 10.1103 19.4812 9.43525 21.1894C8.76022 22.8976 7.43468 24.2679 5.74986 24.9994C5.53842 25.0957 5.32136 25.1792 5.09986 25.2494C3.96174 25.625 2.96588 26.3401 2.24613 27.2984C1.52639 28.2568 1.11724 29.4125 1.07369 30.6102C1.03014 31.808 1.35426 32.9903 2.0025 33.9984C2.65074 35.0065 3.59203 35.792 4.69986 36.2494C4.82717 36.3024 4.92818 36.4038 4.98069 36.5314C5.0332 36.6589 5.03291 36.802 4.97986 36.9294C4.93903 37.0211 4.87342 37.0997 4.79039 37.1562C4.70736 37.2128 4.61021 37.245 4.50986 37.2494Z" fill="#3E3126"/>
<path d="M30.7796 63.3898H30.5196C29.0983 63.3434 27.7269 62.8553 26.5959 61.9932C25.465 61.1311 24.6309 59.938 24.2096 58.5798C23.9866 57.8429 23.6206 57.1572 23.1324 56.5619C22.6443 55.9666 22.0436 55.4733 21.3648 55.1101C20.6859 54.747 19.9422 54.5213 19.176 54.4457C18.4099 54.3701 17.6363 54.4463 16.8996 54.6698C16.6637 54.7399 16.4331 54.8268 16.2096 54.9298C14.8974 55.4931 13.4432 55.6373 12.0459 55.3426C10.6486 55.048 9.37651 54.3288 8.40351 53.2836C7.43052 52.2384 6.80418 50.9181 6.61016 49.5033C6.41615 48.0885 6.66393 46.6484 7.31961 45.3798C7.68954 44.674 7.9106 43.8998 7.96908 43.1051C8.02757 42.3104 7.92224 41.5121 7.65961 40.7598C7.61519 40.6245 7.62599 40.4772 7.68967 40.3498C7.75334 40.2225 7.86474 40.1254 7.99961 40.0798C8.13224 40.0352 8.2771 40.0449 8.40261 40.1067C8.52813 40.1686 8.6241 40.2775 8.66961 40.4098C8.97957 41.2989 9.10398 42.2421 9.03519 43.1812C8.96639 44.1203 8.70584 45.0353 8.26961 45.8698C7.70182 46.9445 7.48162 48.1689 7.6394 49.374C7.79719 50.5792 8.32518 51.7056 9.1505 52.5979C9.97582 53.4902 11.0578 54.1042 12.247 54.3553C13.4362 54.6064 14.674 54.4822 15.7896 53.9998C17.4737 53.2705 19.3786 53.24 21.0852 53.9152C22.7918 54.5903 24.1602 55.9157 24.8896 57.5998C24.9849 57.8185 25.0684 58.0421 25.1396 58.2698C25.4867 59.4348 26.1946 60.4596 27.1615 61.1965C28.1284 61.9333 29.3042 62.3441 30.5196 62.3698C31.732 62.4185 32.9294 62.0884 33.9455 61.4253C34.9616 60.7622 35.746 59.7991 36.1896 58.6698C36.5226 57.8215 37.0202 57.0475 37.6535 56.3923C38.2869 55.7371 39.0437 55.2136 39.8802 54.8521C40.7167 54.4905 41.6165 54.298 42.5277 54.2856C43.4389 54.2732 44.3436 54.4411 45.1896 54.7798C45.4096 54.8698 45.6296 54.9698 45.8396 55.0798C46.9142 55.6354 48.1341 55.8455 49.3326 55.6813C50.5311 55.517 51.6496 54.9866 52.5351 54.1624C53.4205 53.3382 54.0298 52.2606 54.2794 51.0769C54.529 49.8932 54.4069 48.6614 53.9296 47.5498C53.5671 46.7161 53.3727 45.819 53.3575 44.9101C53.3424 44.0011 53.5067 43.0981 53.8411 42.2527C54.1755 41.4073 54.6735 40.6363 55.3064 39.9837C55.9394 39.3311 56.6949 38.8099 57.5296 38.4498C57.7472 38.3518 57.971 38.2682 58.1996 38.1998C59.3377 37.8241 60.3336 37.1091 61.0533 36.1507C61.7731 35.1924 62.1822 34.0367 62.2258 32.8389C62.2693 31.6412 61.9452 30.4588 61.297 29.4507C60.6487 28.4426 59.7074 27.6571 58.5996 27.1998C57.7539 26.8636 56.9827 26.3642 56.33 25.7299C55.6773 25.0957 55.1559 24.3391 54.7956 23.5034C54.4353 22.6677 54.2431 21.7691 54.2301 20.8592C54.2171 19.9492 54.3834 19.0455 54.7196 18.1998C54.8 17.9827 54.8969 17.772 55.0096 17.5698C55.5652 16.4953 55.7753 15.2753 55.6111 14.0768C55.4468 12.8783 54.9164 11.7598 54.0922 10.8743C53.268 9.98886 52.1904 9.37964 51.0067 9.13001C49.8231 8.88039 48.5912 9.00255 47.4796 9.4798C45.7913 10.2055 43.884 10.232 42.1762 9.55334C40.4683 8.87471 39.0994 7.54641 38.3696 5.8598C38.2796 5.6398 38.1996 5.4298 38.1296 5.2098C37.7539 4.07167 37.0389 3.07582 36.0805 2.35607C35.1222 1.63632 33.9665 1.22718 32.7687 1.18362C31.571 1.14007 30.3886 1.46419 29.3806 2.11243C28.3725 2.76067 27.587 3.70196 27.1296 4.8098C27.0763 4.94215 26.9727 5.048 26.8415 5.10421C26.7103 5.16042 26.5623 5.16243 26.4296 5.1098C26.3644 5.08441 26.3049 5.04638 26.2545 4.99788C26.2041 4.94939 26.1638 4.89141 26.1359 4.82726C26.108 4.76312 26.0931 4.6941 26.092 4.62416C26.091 4.55423 26.1037 4.48477 26.1296 4.4198C26.6626 3.10266 27.5882 1.98153 28.7806 1.20872C29.9729 0.43591 31.3743 0.0488853 32.7943 0.100223C34.2143 0.151561 35.584 0.638772 36.7175 1.49567C37.8509 2.35257 38.6931 3.5376 39.1296 4.8898C39.6152 6.33752 40.6468 7.53849 42.0047 8.23703C43.3625 8.93557 44.9394 9.0765 46.3996 8.6298C46.6034 8.57099 46.8037 8.50088 46.9996 8.4198C48.3143 7.85681 49.7709 7.71436 51.1698 8.01196C52.5686 8.30957 53.8411 9.03266 54.8127 10.0821C55.7843 11.1315 56.4075 12.4558 56.5967 13.8733C56.7859 15.2909 56.532 16.7323 55.8696 17.9998C55.1497 19.3829 55.0087 20.9954 55.4775 22.4825C55.9463 23.9696 56.9866 25.2096 58.3696 25.9298L58.8696 26.1598C60.1867 26.6928 61.3079 27.6184 62.0807 28.8108C62.8535 30.0031 63.2405 31.4045 63.1892 32.8245C63.1378 34.2444 62.6506 35.6142 61.7937 36.7476C60.9368 37.8811 59.7518 38.7233 58.3996 39.1598C56.9174 39.6245 55.6804 40.6586 54.9604 42.035C54.2403 43.4113 54.0962 45.0172 54.5596 46.4998C54.6225 46.6969 54.6959 46.8906 54.7796 47.0798C55.3429 48.392 55.4871 49.8462 55.1924 51.2435C54.8978 52.6408 54.1787 53.9129 53.1334 54.8859C52.0882 55.8589 50.7679 56.4852 49.3531 56.6792C47.9384 56.8733 46.4982 56.6255 45.2296 55.9698C44.5501 55.6102 43.8064 55.3881 43.041 55.3161C42.2756 55.2441 41.5035 55.3237 40.7689 55.5503C40.0342 55.7769 39.3515 56.1461 38.7596 56.6367C38.1678 57.1274 37.6785 57.7299 37.3196 58.4098C37.2261 58.5918 37.1427 58.7787 37.0696 58.9698C36.5813 60.2497 35.7216 61.3544 34.6007 62.142C33.4799 62.9296 32.1492 63.3641 30.7796 63.3898Z" fill="#3E3126"/>
<path d="M8.74955 11.7794H8.55955C8.43091 11.73 8.32659 11.6324 8.26872 11.5073C8.21085 11.3822 8.20397 11.2395 8.24955 11.1094C8.60025 10.17 9.14871 9.31679 9.8578 8.6077C10.5669 7.89861 11.4201 7.35015 12.3596 6.99945C13.2721 6.65168 14.2496 6.5073 15.2237 6.57638C16.1979 6.64547 17.1452 6.92636 17.9996 7.39945C19.345 8.09309 20.9045 8.2469 22.3596 7.82945C22.4225 7.80761 22.4893 7.79859 22.5558 7.80291C22.6223 7.80724 22.6873 7.82483 22.747 7.85465C22.8066 7.88446 22.8597 7.9259 22.903 7.97653C22.9464 8.02716 22.9792 8.08595 22.9996 8.14945C23.0193 8.21576 23.0257 8.28536 23.0183 8.35416C23.0108 8.42295 22.9897 8.48958 22.9562 8.55011C22.9226 8.61065 22.8774 8.66389 22.823 8.7067C22.7686 8.74952 22.7063 8.78105 22.6396 8.79945C20.9266 9.30975 19.082 9.13031 17.4996 8.29945C16.774 7.90586 15.9714 7.67513 15.1476 7.62332C14.3239 7.57151 13.4987 7.69987 12.7296 7.99945C11.9365 8.29197 11.2135 8.74743 10.6072 9.33649C10.0009 9.92554 9.5248 10.6351 9.20955 11.4195C9.17343 11.516 9.11137 11.6007 9.03021 11.6642C8.94905 11.7277 8.85193 11.7676 8.74955 11.7794Z" fill="#3E3126"/>
<path d="M30.4796 58.88C31.9101 58.88 33.0696 57.8995 33.0696 56.69C33.0696 55.4805 31.9101 54.5 30.4796 54.5C29.0492 54.5 27.8896 55.4805 27.8896 56.69C27.8896 57.8995 29.0492 58.88 30.4796 58.88Z" fill="#94B5BF"/>
<path opacity="0.5" d="M32.0898 53.6395C32.5482 53.6395 32.9198 53.2679 32.9198 52.8095C32.9198 52.3511 32.5482 51.9795 32.0898 51.9795C31.6314 51.9795 31.2598 52.3511 31.2598 52.8095C31.2598 53.2679 31.6314 53.6395 32.0898 53.6395Z" fill="#94B5BF"/>
<path opacity="0.5" d="M47.8398 14.66C48.2982 14.66 48.6698 14.2884 48.6698 13.83C48.6698 13.3716 48.2982 13 47.8398 13C47.3814 13 47.0098 13.3716 47.0098 13.83C47.0098 14.2884 47.3814 14.66 47.8398 14.66Z" fill="#94B5BF"/>
<path d="M37.9902 55.2294C38.9788 55.2294 39.7802 54.428 39.7802 53.4394C39.7802 52.4508 38.9788 51.6494 37.9902 51.6494C37.0016 51.6494 36.2002 52.4508 36.2002 53.4394C36.2002 54.428 37.0016 55.2294 37.9902 55.2294Z" fill="#94B5BF"/>
<path d="M52.2402 26.0195C53.2288 26.0195 54.0302 25.218 54.0302 24.2295C54.0302 23.2409 53.2288 22.4395 52.2402 22.4395C51.2516 22.4395 50.4502 23.2409 50.4502 24.2295C50.4502 25.218 51.2516 26.0195 52.2402 26.0195Z" fill="#94B5BF"/>
<path opacity="0.5" d="M35.2598 53.2695C35.5359 53.2695 35.7598 53.0457 35.7598 52.7695C35.7598 52.4934 35.5359 52.2695 35.2598 52.2695C34.9836 52.2695 34.7598 52.4934 34.7598 52.7695C34.7598 53.0457 34.9836 53.2695 35.2598 53.2695Z" fill="#94B5BF"/>
<path opacity="0.5" d="M48.79 16.2197C49.0662 16.2197 49.29 15.9959 49.29 15.7197C49.29 15.4436 49.0662 15.2197 48.79 15.2197C48.5139 15.2197 48.29 15.4436 48.29 15.7197C48.29 15.9959 48.5139 16.2197 48.79 16.2197Z" fill="#94B5BF"/>
<path opacity="0.35" d="M50.1797 21.7002C50.4558 21.7002 50.6797 21.4763 50.6797 21.2002C50.6797 20.9241 50.4558 20.7002 50.1797 20.7002C49.9035 20.7002 49.6797 20.9241 49.6797 21.2002C49.6797 21.4763 49.9035 21.7002 50.1797 21.7002Z" fill="#94B5BF"/>
<path d="M50.7495 19.8799C51.705 19.8799 52.4795 19.1054 52.4795 18.1499C52.4795 17.1945 51.705 16.4199 50.7495 16.4199C49.7941 16.4199 49.0195 17.1945 49.0195 18.1499C49.0195 19.1054 49.7941 19.8799 50.7495 19.8799Z" fill="#94B5BF"/>
<path d="M31.6594 43.38C29.0189 43.3754 26.4575 42.4785 24.3909 40.835C22.3243 39.1914 20.8738 36.8977 20.2749 34.326C19.676 31.7544 19.9638 29.0558 21.0917 26.6683C22.2195 24.2808 24.1211 22.3446 26.4879 21.1739C28.8546 20.0031 31.5476 19.6667 34.1296 20.2191C36.7117 20.7715 39.0312 22.1804 40.7118 24.217C42.3923 26.2536 43.3352 28.7985 43.3874 31.4384C43.4397 34.0784 42.5981 36.6585 40.9994 38.76C40.9641 38.8061 40.92 38.8449 40.8697 38.8739C40.8193 38.903 40.7637 38.9218 40.7061 38.9292C40.6484 38.9366 40.5899 38.9326 40.5338 38.9173C40.4777 38.902 40.4253 38.8757 40.3794 38.84C40.2852 38.77 40.222 38.6661 40.2034 38.5503C40.1847 38.4345 40.212 38.3159 40.2794 38.22C41.9223 36.0577 42.6912 33.3564 42.4333 30.6531C42.1753 27.9498 40.9093 25.4426 38.8871 23.6301C36.8649 21.8177 34.2346 20.8327 31.5193 20.8711C28.804 20.9095 26.2026 21.9684 24.2325 23.8373C22.2623 25.7062 21.0677 28.2482 20.8863 30.9577C20.7049 33.6672 21.5499 36.3458 23.2532 38.4607C24.9566 40.5756 27.3936 41.9719 30.0795 42.372C32.7655 42.7721 35.5036 42.1466 37.7494 40.62C37.8401 40.5586 37.95 40.5324 38.0586 40.5463C38.1672 40.5601 38.267 40.6131 38.3393 40.6952C38.4117 40.7774 38.4516 40.8831 38.4516 40.9926C38.4516 41.1021 38.4117 41.2078 38.3394 41.29L38.2494 41.36C36.3051 42.6792 34.009 43.383 31.6594 43.38Z" fill="#3E3126"/>
<path d="M7.55033 32.9997H7.42033C7.3395 32.9665 7.27516 32.9025 7.24141 32.8219C7.20767 32.7413 7.20728 32.6506 7.24033 32.5697L9.00033 28.2797C9.03356 28.1989 9.0975 28.1345 9.17811 28.1008C9.25872 28.067 9.34943 28.0667 9.43033 28.0997C9.47157 28.1161 9.50909 28.1406 9.54063 28.1719C9.57217 28.2031 9.59709 28.2403 9.61389 28.2814C9.63069 28.3225 9.63904 28.3665 9.63843 28.4109C9.63782 28.4553 9.62826 28.4991 9.61033 28.5397L7.81033 32.7697C7.79263 32.8284 7.75894 32.881 7.71301 32.9216C7.66709 32.9623 7.61075 32.9893 7.55033 32.9997Z" fill="#3E3126"/>
<path d="M9.92998 30.8996H9.80998C9.72915 30.8664 9.66481 30.8025 9.63106 30.7218C9.59732 30.6412 9.59693 30.5505 9.62997 30.4696L10.63 28.1996C10.6632 28.1188 10.7271 28.0545 10.8078 28.0207C10.8884 27.987 10.9791 27.9866 11.06 28.0196C11.1012 28.036 11.1387 28.0606 11.1703 28.0918C11.2018 28.123 11.2267 28.1603 11.2435 28.2013C11.2603 28.2424 11.2687 28.2865 11.2681 28.3308C11.2675 28.3752 11.2579 28.419 11.24 28.4596L10.24 30.7196C10.2093 30.7748 10.1643 30.8206 10.1098 30.8523C10.0552 30.884 9.99307 30.9004 9.92998 30.8996Z" fill="#3E3126"/>
<path d="M31.6602 51.1597C27.8054 51.1617 24.0366 50.0205 20.8304 47.8806C17.6242 45.7406 15.1246 42.698 13.6476 39.1374C12.1706 35.5769 11.7826 31.6583 12.5327 27.8772C13.2828 24.0961 15.1373 20.6224 17.8616 17.8953C20.5859 15.1681 24.0577 13.3101 27.838 12.5561C31.6184 11.8022 35.5373 12.1861 39.0994 13.6595C42.6615 15.1328 45.7067 17.6293 47.8499 20.8333C49.9932 24.0373 51.1382 27.8049 51.1402 31.6597C51.1349 36.8263 49.0815 41.7801 45.43 45.4354C41.7785 49.0906 36.8268 51.1491 31.6602 51.1597ZM31.6602 13.0797C27.9814 13.0698 24.3824 14.151 21.3182 16.1866C18.254 18.2222 15.8622 21.1207 14.4453 24.5156C13.0283 27.9105 12.65 31.6493 13.3579 35.2593C14.0659 38.8692 15.8285 42.1882 18.4227 44.7964C21.017 47.4046 24.3264 49.185 27.9325 49.9124C31.5386 50.6398 35.2794 50.2815 38.6819 48.8829C42.0844 47.4842 44.9957 45.1081 47.0477 42.0548C49.0997 39.0016 50.2003 35.4084 50.2102 31.7297V31.6697C50.2049 26.7479 48.2501 22.0285 44.7736 18.5445C41.2971 15.0605 36.582 13.0956 31.6602 13.0797Z" fill="#3E3126"/>
</g>
<defs>
<clipPath id="clip0_2_2657">
<rect width="63.19" height="63.39" fill="white"/>
</clipPath>
</defs>
</svg>
