<svg width="39" height="66" viewBox="0 0 39 66" fill="none" xmlns="http://www.w3.org/2000/svg">
<g clip-path="url(#clip0_2_2616)">
<path d="M11.3701 52.5098V54.5098C11.369 54.8603 11.472 55.2034 11.666 55.4953C11.8601 55.7873 12.1365 56.0151 12.4601 56.1498C12.6501 56.2298 12.8701 56.3198 13.1101 56.3998L13.2401 56.6898V58.2398C13.236 58.5088 13.3129 58.773 13.4609 58.9977C13.609 59.2224 13.8213 59.3974 14.0701 59.4998L14.5001 59.6598V59.9998C14.5001 61.294 15.0143 62.5353 15.9294 63.4504C16.8446 64.3656 18.0859 64.8798 19.3801 64.8798C20.6744 64.8798 21.9156 64.3656 22.8308 63.4504C23.746 62.5353 24.2601 61.294 24.2601 59.9998L24.4301 59.5698L24.7101 59.4598C24.9593 59.3567 25.1722 59.1818 25.3217 58.9575C25.4713 58.7331 25.5508 58.4694 25.5501 58.1998V56.4798C25.8501 56.3698 26.1401 56.2598 26.3701 56.1598C26.6962 56.0285 26.9749 55.8015 27.1694 55.5088C27.364 55.216 27.4654 54.8712 27.4601 54.5198V52.5198L11.3701 52.5098Z" fill="#D9E1E4"/>
<path d="M19.4102 61.9299C17.8233 61.9325 16.2475 61.6654 14.7502 61.1399C14.6309 61.0934 14.5348 61.0015 14.4833 60.8843C14.4317 60.7671 14.4288 60.6342 14.4752 60.5149C14.5216 60.3955 14.6135 60.2995 14.7308 60.2479C14.848 60.1963 14.9809 60.1934 15.1002 60.2399C17.7562 61.1596 20.6442 61.1596 23.3002 60.2399C23.4157 60.2077 23.539 60.2191 23.6467 60.2718C23.7544 60.3244 23.8391 60.4147 23.8847 60.5256C23.9303 60.6365 23.9336 60.7603 23.8941 60.8735C23.8546 60.9867 23.7749 61.0814 23.6702 61.1399C22.3145 61.6755 20.8679 61.9438 19.4102 61.9299V61.9299Z" fill="#94B5BF"/>
<path d="M19.5604 55.3101C16.7815 55.3104 14.0225 54.8405 11.4004 53.9201C11.3413 53.898 11.2872 53.8643 11.2414 53.8209C11.1956 53.7775 11.159 53.7253 11.1338 53.6674C11.1086 53.6096 11.0953 53.5472 11.0947 53.4841C11.0942 53.421 11.1063 53.3584 11.1304 53.3001C11.1734 53.1835 11.26 53.0881 11.3719 53.034C11.4838 52.9799 11.6123 52.9714 11.7304 53.0101C11.8104 53.0101 19.5004 55.9301 26.6304 53.0101C26.7486 52.9632 26.8805 52.9641 26.998 53.0126C27.1156 53.0612 27.2097 53.1535 27.2604 53.2701V53.2701C27.3073 53.3883 27.3064 53.5202 27.2579 53.6377C27.2094 53.7553 27.117 53.8494 27.0004 53.9001C24.6339 54.8434 22.1079 55.3221 19.5604 55.3101V55.3101Z" fill="#94B5BF"/>
<path d="M25.37 56.4199V57.7199L25.17 57.7899C23.1945 58.532 21.1095 58.9409 19 58.9999C16.9531 58.9573 14.9267 58.5825 13 57.8899V56.6399V56.4999C14.9237 57.2045 16.9516 57.583 19 57.6199L25.37 56.4199Z" fill="#94B5BF"/>
<path d="M28.6698 51.29V47.42C28.6698 47.42 28.2098 40.25 31.5398 34.89C34.8698 29.53 37.8998 26.3 37.8998 18.68C37.8998 11.06 31.3298 0.5 19.2198 0.5C7.10981 0.5 0.549805 11.07 0.549805 18.68C0.549805 26.29 3.5498 29.54 6.8998 34.89C8.87937 38.0008 9.87921 41.6344 9.7698 45.32V51.32C9.76901 51.4921 9.81757 51.6608 9.90974 51.8061C10.0019 51.9515 10.1338 52.0673 10.2898 52.14C13.1013 53.3887 16.1435 54.0339 19.2198 54.0339C22.2961 54.0339 25.3383 53.3887 28.1498 52.14C28.3114 52.0664 28.4472 51.9461 28.5399 51.7946C28.6326 51.6431 28.6778 51.4674 28.6698 51.29V51.29Z" fill="#FBE481"/>
<path opacity="0.5" d="M31.2095 35.1303C29.23 38.2411 28.2301 41.8747 28.3395 45.5603V51.5603C28.3403 51.7324 28.2918 51.9011 28.1996 52.0465C28.1074 52.1918 27.9755 52.3077 27.8195 52.3803C25.7478 53.3284 23.5355 53.9329 21.2695 54.1703C21.2695 53.4603 21.2095 52.5903 21.1595 51.5603V45.5603C21.0412 41.8778 22.0305 38.2445 23.9995 35.1303C27.3295 29.7803 30.3495 26.5403 30.3495 18.9203C30.3495 12.1003 25.0795 2.92032 15.2695 1.08032C16.4624 0.850423 17.6747 0.736558 18.8895 0.740325C30.9995 0.740325 37.5695 11.3103 37.5695 18.9203C37.5695 26.5303 34.5395 29.8003 31.2095 35.1303Z" fill="#F8A547"/>
<path d="M31.05 35.0001C29.5724 37.497 28.8016 40.3488 28.82 43.2501V45.6901L28.16 51.4001C28.1562 51.5711 28.1057 51.7379 28.0141 51.8824C27.9224 52.0269 27.7931 52.1437 27.64 52.2201C25.5815 53.1546 23.3874 53.7554 21.14 54.0001V53.8101C22.9269 53.652 24.6834 53.2482 26.36 52.6101C26.69 52.4601 26.87 52.7001 26.87 52.3501V45.3801C26.7671 41.7123 27.763 38.0975 29.73 35.0001C33.06 29.6501 36.1 26.4101 36.1 18.7901C36.1 11.1701 29.74 0.920078 18 0.580078H18.75C30.86 0.580078 37.43 11.1501 37.43 18.7601C37.43 26.3701 34.38 29.6001 31.05 35.0001Z" fill="#FCA100"/>
<path d="M6.91004 34.9997C8.87251 38.0992 9.86811 41.7126 9.77004 45.3797V51.3797C9.76886 51.5532 9.8184 51.7232 9.91256 51.8689C10.0067 52.0146 10.1414 52.1296 10.3 52.1997C12.3697 53.1459 14.5778 53.7536 16.84 53.9997V53.7997C15.0436 53.4985 13.2951 52.9605 11.64 52.1997C11.31 52.0497 11.12 52.6897 11.12 52.3397L11.94 48.5197C12.8969 44.2861 12.323 39.8504 10.32 35.9997C10.14 35.6697 9.95004 35.3397 9.74004 34.9997C6.41004 29.6497 3.37004 26.4097 3.37004 18.7897C3.37004 11.1697 8.25004 0.999745 20 0.609745H19.25C16.4592 0.565106 13.6956 1.16439 11.1739 2.36106C8.65225 3.55773 6.44036 5.31957 4.71004 7.50975C2.11725 10.7088 0.651585 14.6734 0.540039 18.7897C0.550039 26.3597 3.58004 29.5997 6.91004 34.9997Z" fill="white"/>
<path d="M4.82 32.2097C4.7319 32.2158 4.64368 32.1998 4.56334 32.1631C4.48301 32.1265 4.41311 32.0703 4.36 31.9997C1.89 28.1497 0 24.7497 0 18.6797C0.0696907 15.5821 0.919203 12.5521 2.47 9.86974C2.54028 9.74376 2.65773 9.65087 2.79651 9.61148C2.93528 9.5721 3.08402 9.58946 3.21 9.65974C3.33598 9.73002 3.42888 9.84747 3.46826 9.98625C3.50764 10.125 3.49028 10.2738 3.42 10.3997C1.98169 12.9265 1.19792 15.7728 1.14 18.6797C1.14 24.4597 2.88 27.5897 5.33 31.3697C5.38406 31.4561 5.41305 31.5559 5.41374 31.6578C5.41443 31.7597 5.38678 31.8598 5.33389 31.9469C5.28099 32.034 5.20493 32.1048 5.11419 32.1512C5.02345 32.1976 4.9216 32.2178 4.82 32.2097V32.2097Z" fill="#3E3126"/>
<path d="M28.7296 43.7001H28.6796C28.5372 43.6849 28.4063 43.6148 28.3148 43.5046C28.2233 43.3944 28.1784 43.2529 28.1896 43.1101C28.2609 42.3023 28.3879 41.5004 28.5696 40.7101C29.0604 38.5479 29.9087 36.4829 31.0796 34.6001C31.5996 33.7801 32.0796 33.0001 32.5896 32.2501C35.2496 28.1801 37.3496 24.9601 37.3496 18.6801C37.3496 11.2901 31.0496 1.05009 19.2196 1.05009C14.8194 1.00139 10.5615 2.60748 7.28961 5.55009C7.1868 5.65087 7.04858 5.70731 6.90461 5.70731C6.76065 5.70731 6.62243 5.65087 6.51961 5.55009C6.41946 5.44897 6.36328 5.31241 6.36328 5.17009C6.36328 5.02777 6.41946 4.89121 6.51961 4.79009V4.79009C9.98825 1.66007 14.5078 -0.0499279 19.1796 9.0528e-05C31.7196 9.0528e-05 38.3996 10.8701 38.3996 18.7201C38.3996 25.2901 36.1396 28.8001 33.4996 32.8001C33.0196 33.5501 32.4996 34.3201 31.9996 35.1401C30.8997 36.9211 30.0991 38.8702 29.6296 40.9101C29.4602 41.6547 29.3399 42.4097 29.2696 43.1701C29.2645 43.3108 29.2057 43.4441 29.1052 43.5427C29.0048 43.6413 28.8703 43.6976 28.7296 43.7001Z" fill="#3E3126"/>
<path d="M19.3297 54.5703C16.1337 54.561 12.9753 53.8796 10.0597 52.5703C9.80819 52.4564 9.59501 52.272 9.44595 52.0396C9.29688 51.8071 9.21832 51.5364 9.21975 51.2603V46.8003C9.22237 46.6562 9.28147 46.5188 9.38433 46.4178C9.48719 46.3168 9.62559 46.2603 9.76975 46.2603C9.91296 46.2603 10.0503 46.3172 10.1516 46.4185C10.2529 46.5197 10.3097 46.6571 10.3097 46.8003V51.3003C10.3102 51.3669 10.3291 51.4321 10.3645 51.4886C10.3998 51.5451 10.4501 51.5907 10.5097 51.6203C13.251 52.8418 16.2186 53.473 19.2197 53.473C22.2209 53.473 25.1884 52.8418 27.9297 51.6203C27.9894 51.5907 28.0397 51.5451 28.075 51.4886C28.1103 51.4321 28.1293 51.3669 28.1297 51.3003V44.6603C28.1099 44.5158 28.1482 44.3692 28.2363 44.253C28.3245 44.1367 28.4552 44.0602 28.5997 44.0403C28.7443 44.0204 28.8908 44.0587 29.0071 44.1469C29.1234 44.235 29.1999 44.3657 29.2197 44.5103C29.2297 44.5598 29.2297 44.6108 29.2197 44.6603V51.3003C29.2194 51.5773 29.1402 51.8486 28.9915 52.0823C28.8427 52.3161 28.6306 52.5026 28.3797 52.6203C25.5382 53.9128 22.4515 54.5779 19.3297 54.5703V54.5703Z" fill="#3E3126"/>
<path d="M9.46005 41.9997C9.3343 41.9995 9.21254 41.9555 9.11578 41.8752C9.01903 41.7949 8.95334 41.6833 8.93005 41.5597C8.63979 40.0171 8.15246 38.5181 7.48005 37.0997C7.41905 36.9671 7.41323 36.8157 7.46386 36.6788C7.5145 36.5419 7.61744 36.4307 7.75005 36.3697C7.88266 36.3087 8.03407 36.3029 8.17097 36.3535C8.30787 36.4041 8.41905 36.5071 8.48005 36.6397C9.1782 38.1344 9.68875 39.7097 10.0001 41.3297C10.0266 41.4715 9.9964 41.618 9.91598 41.7377C9.83555 41.8574 9.71132 41.9407 9.57005 41.9697L9.46005 41.9997Z" fill="#3E3126"/>
<path d="M31.5154 26.0841C31.9533 24.8976 31.6237 23.683 30.7792 23.3713C29.9347 23.0596 28.895 23.7687 28.457 24.9552C28.0191 26.1417 28.3487 27.3562 29.1932 27.668C30.0377 27.9797 31.0774 27.2706 31.5154 26.0841Z" fill="#FFB320"/>
<path d="M31.8398 22.1104C32.3921 22.1104 32.8398 21.6626 32.8398 21.1104C32.8398 20.5581 32.3921 20.1104 31.8398 20.1104C31.2876 20.1104 30.8398 20.5581 30.8398 21.1104C30.8398 21.6626 31.2876 22.1104 31.8398 22.1104Z" fill="#FFB320"/>
<path opacity="0.75" d="M29.1803 22.2502C29.4012 22.2502 29.5803 22.0711 29.5803 21.8502C29.5803 21.6293 29.4012 21.4502 29.1803 21.4502C28.9594 21.4502 28.7803 21.6293 28.7803 21.8502C28.7803 22.0711 28.9594 22.2502 29.1803 22.2502Z" fill="#FFB320"/>
<path d="M27.5496 27.6901C27.9142 27.6901 28.2096 27.3946 28.2096 27.0301C28.2096 26.6656 27.9142 26.3701 27.5496 26.3701C27.1851 26.3701 26.8896 26.6656 26.8896 27.0301C26.8896 27.3946 27.1851 27.6901 27.5496 27.6901Z" fill="#FFB320"/>
<path opacity="0.35" d="M30.9402 18.7905C31.3489 18.7905 31.6802 18.4592 31.6802 18.0505C31.6802 17.6419 31.3489 17.3105 30.9402 17.3105C30.5315 17.3105 30.2002 17.6419 30.2002 18.0505C30.2002 18.4592 30.5315 18.7905 30.9402 18.7905Z" fill="#FFB320"/>
<path opacity="0.35" d="M28.5402 20.1301C28.8881 20.1301 29.1702 19.8481 29.1702 19.5001C29.1702 19.1522 28.8881 18.8701 28.5402 18.8701C28.1922 18.8701 27.9102 19.1522 27.9102 19.5001C27.9102 19.8481 28.1922 20.1301 28.5402 20.1301Z" fill="#FFB320"/>
<path opacity="0.35" d="M26.99 23.8901C27.2827 23.8901 27.52 23.6528 27.52 23.3601C27.52 23.0674 27.2827 22.8301 26.99 22.8301C26.6973 22.8301 26.46 23.0674 26.46 23.3601C26.46 23.6528 26.6973 23.8901 26.99 23.8901Z" fill="#FFB320"/>
<path opacity="0.75" d="M25.3199 13.09C25.5408 13.09 25.7199 12.911 25.7199 12.69C25.7199 12.4691 25.5408 12.29 25.3199 12.29C25.099 12.29 24.9199 12.4691 24.9199 12.69C24.9199 12.911 25.099 13.09 25.3199 13.09Z" fill="#E2AB63"/>
<path opacity="0.35" d="M23.5603 9.63039C23.969 9.63039 24.3003 9.29908 24.3003 8.89039C24.3003 8.4817 23.969 8.15039 23.5603 8.15039C23.1516 8.15039 22.8203 8.4817 22.8203 8.89039C22.8203 9.29908 23.1516 9.63039 23.5603 9.63039Z" fill="#E2AB63"/>
<path opacity="0.35" d="M23.1202 12.3C23.4682 12.3 23.7502 12.018 23.7502 11.67C23.7502 11.3221 23.4682 11.04 23.1202 11.04C22.7723 11.04 22.4902 11.3221 22.4902 11.67C22.4902 12.018 22.7723 12.3 23.1202 12.3Z" fill="#E2AB63"/>
<path opacity="0.35" d="M25.0603 15.8705C25.353 15.8705 25.5903 15.6333 25.5903 15.3405C25.5903 15.0478 25.353 14.8105 25.0603 14.8105C24.7676 14.8105 24.5303 15.0478 24.5303 15.3405C24.5303 15.6333 24.7676 15.8705 25.0603 15.8705Z" fill="#E2AB63"/>
<path d="M20.4996 53.9C20.3856 53.9 20.2762 53.8547 20.1956 53.7741C20.1149 53.6934 20.0696 53.5841 20.0696 53.47V38.19H17.9396V53.3C17.924 53.4016 17.8726 53.4941 17.7946 53.561C17.7166 53.6279 17.6173 53.6646 17.5146 53.6646C17.4119 53.6646 17.3126 53.6279 17.2346 53.561C17.1567 53.4941 17.1052 53.4016 17.0896 53.3V38.19H14.9996C14.2305 38.19 13.4929 37.8845 12.949 37.3406C12.4051 36.7968 12.0996 36.0592 12.0996 35.29V34.8C12.1431 34.059 12.4681 33.3627 13.0081 32.8534C13.5481 32.3442 14.2623 32.0605 15.0046 32.0605C15.7469 32.0605 16.4611 32.3442 17.0011 32.8534C17.5411 33.3627 17.8661 34.059 17.9096 34.8V37.39H20.0396V34.8C20.0831 34.059 20.4081 33.3627 20.9481 32.8534C21.4881 32.3442 22.2023 32.0605 22.9446 32.0605C23.6869 32.0605 24.4011 32.3442 24.9411 32.8534C25.4811 33.3627 25.8061 34.059 25.8496 34.8V35.34C25.8496 36.1092 25.5441 36.8468 25.0002 37.3906C24.4564 37.9345 23.7187 38.24 22.9496 38.24H20.9196V53.52C20.9096 53.6244 20.861 53.7212 20.7833 53.7915C20.7056 53.8618 20.6044 53.9005 20.4996 53.9ZM20.9196 37.34H22.9996C23.5253 37.3249 24.0252 37.1094 24.3971 36.7375C24.7689 36.3657 24.9845 35.8657 24.9996 35.34V34.8C24.9633 34.2798 24.731 33.7927 24.3496 33.437C23.9682 33.0813 23.4661 32.8835 22.9446 32.8835C22.4231 32.8835 21.921 33.0813 21.5396 33.437C21.1582 33.7927 20.9259 34.2798 20.8896 34.8L20.9196 37.34ZM14.9996 32.7C14.474 32.7151 13.974 32.9307 13.6021 33.3025C13.2303 33.6744 13.0147 34.1744 12.9996 34.7V35.24C13.0147 35.7657 13.2303 36.2657 13.6021 36.6375C13.974 37.0094 14.474 37.2249 14.9996 37.24H17.1096V34.8C17.1204 34.257 16.9163 33.7318 16.5417 33.3385C16.1672 32.9452 15.6525 32.7157 15.1096 32.7H14.9996Z" fill="#3E3126"/>
<path d="M29.9424 14.7848C31.4333 14.3956 32.2315 12.5076 31.7251 10.5678C31.2187 8.62798 29.5996 7.37097 28.1087 7.76016C26.6178 8.14934 25.8197 10.0374 26.326 11.9771C26.8324 13.9169 28.4515 15.174 29.9424 14.7848Z" fill="#FFB320"/>
<path d="M15.6898 57.2398H15.5798C14.4835 56.9976 13.4096 56.6631 12.3698 56.2398C11.9675 56.1027 11.6285 55.8246 11.4153 55.457C11.2021 55.0894 11.1291 54.657 11.2098 54.2398C11.2272 54.1143 11.2916 54.0001 11.39 53.9203C11.4884 53.8405 11.6134 53.801 11.7398 53.8098C11.8029 53.8148 11.8644 53.8323 11.9207 53.8612C11.977 53.8901 12.0271 53.9299 12.068 53.9782C12.1089 54.0266 12.1398 54.0825 12.159 54.1428C12.1782 54.2032 12.1852 54.2667 12.1798 54.3298V54.3298C12.1442 54.5269 12.1726 54.7303 12.2607 54.9102C12.3489 55.0901 12.4922 55.2371 12.6698 55.3298C13.6847 55.7183 14.7277 56.0292 15.7898 56.2598C15.9139 56.2908 16.0215 56.3682 16.0904 56.4761C16.1592 56.584 16.184 56.7141 16.1598 56.8398C16.1429 56.952 16.086 57.0542 15.9996 57.1278C15.9132 57.2013 15.8032 57.2411 15.6898 57.2398V57.2398Z" fill="white"/>
<path d="M16.1403 57.7996C14.7695 57.5468 13.4289 57.1513 12.1403 56.6196C11.7415 56.4578 11.3996 56.1815 11.1575 55.8255C10.9155 55.4696 10.7843 55.05 10.7803 54.6196V52.6196C10.7631 52.5069 10.7914 52.392 10.8589 52.3001C10.9264 52.2082 11.0276 52.1469 11.1403 52.1296C11.2526 52.1151 11.3662 52.1443 11.4575 52.2114C11.5488 52.2784 11.6107 52.3781 11.6303 52.4896C11.6402 52.5324 11.6402 52.5769 11.6303 52.6196V54.6196C11.64 54.8728 11.7212 55.118 11.8646 55.3268C12.008 55.5357 12.2076 55.6996 12.4403 55.7996C13.6733 56.3012 14.9529 56.6797 16.2603 56.9296C16.3149 56.9393 16.3671 56.9596 16.4138 56.9895C16.4605 57.0194 16.5008 57.0583 16.5324 57.1038C16.564 57.1494 16.5863 57.2007 16.5979 57.2549C16.6096 57.3091 16.6104 57.3651 16.6003 57.4196V57.4196C16.5877 57.5302 16.5327 57.6315 16.447 57.7024C16.3612 57.7733 16.2513 57.8081 16.1403 57.7996V57.7996Z" fill="#3E3126"/>
<path d="M19 58.1096C18.9438 58.1192 18.8862 58.1174 18.8306 58.1045C18.775 58.0916 18.7226 58.0677 18.6763 58.0343C18.63 58.0009 18.5909 57.9586 18.5611 57.9099C18.5314 57.8612 18.5116 57.8071 18.503 57.7507C18.4944 57.6943 18.497 57.6367 18.5109 57.5814C18.5247 57.526 18.5495 57.4739 18.5836 57.4282C18.6178 57.3825 18.6607 57.3441 18.7099 57.3151C18.7591 57.2862 18.8135 57.2673 18.87 57.2596H19C21.4025 57.2272 23.7773 56.7421 26 55.8296C26.2446 55.7252 26.453 55.5509 26.5989 55.3285C26.7447 55.1061 26.8217 54.8456 26.82 54.5796V52.5796C26.8028 52.4669 26.8311 52.3519 26.8986 52.2601C26.9661 52.1682 27.0673 52.1069 27.18 52.0896C27.2923 52.075 27.406 52.1043 27.4972 52.1713C27.5885 52.2384 27.6504 52.3381 27.67 52.4496C27.6799 52.4924 27.6799 52.5368 27.67 52.5796V54.5796C27.6682 55.0092 27.539 55.4285 27.2987 55.7845C27.0583 56.1406 26.7177 56.4173 26.32 56.5796C23.9992 57.5495 21.515 58.0687 19 58.1096Z" fill="#3E3126"/>
<path d="M19.3602 61.1103C17.4275 61.0938 15.5149 60.7174 13.7202 60.0003C13.393 59.8636 13.1139 59.6329 12.918 59.3374C12.7222 59.0419 12.6185 58.6948 12.6202 58.3403V56.8003C12.6029 56.6876 12.6312 56.5727 12.6987 56.4808C12.7662 56.3889 12.8675 56.3276 12.9802 56.3103C13.0925 56.2957 13.2061 56.325 13.2974 56.3921C13.3886 56.4591 13.4505 56.5588 13.4702 56.6703C13.48 56.7131 13.48 56.7575 13.4702 56.8003V58.3403C13.4698 58.5265 13.5248 58.7085 13.628 58.8634C13.7313 59.0183 13.8782 59.139 14.0502 59.2103C15.7343 59.9093 17.5368 60.2793 19.3602 60.3003C19.4725 60.2857 19.5861 60.315 19.6774 60.3821C19.7686 60.4491 19.8305 60.5488 19.8502 60.6603C19.8601 60.7163 19.8586 60.7737 19.8457 60.8291C19.8328 60.8844 19.8088 60.9366 19.7751 60.9824C19.7414 61.0282 19.6988 61.0667 19.6499 61.0956C19.6009 61.1244 19.5466 61.1431 19.4902 61.1503H19.3602V61.1103Z" fill="#3E3126"/>
<path d="M19.0801 61.1103C19.0239 61.1199 18.9663 61.1181 18.9107 61.1052C18.8551 61.0923 18.8027 61.0684 18.7564 61.035C18.7101 61.0016 18.671 60.9593 18.6412 60.9106C18.6115 60.8619 18.5917 60.8078 18.5831 60.7514C18.5744 60.695 18.5771 60.6374 18.591 60.5821C18.6048 60.5267 18.6295 60.4746 18.6637 60.4289C18.6979 60.3832 18.7408 60.3448 18.79 60.3158C18.8391 60.2869 18.8936 60.268 18.9501 60.2603H19.0801C20.9058 60.2305 22.7099 59.8609 24.4001 59.1703C24.5774 59.1045 24.7301 58.9857 24.8375 58.8301C24.9449 58.6744 25.0016 58.4894 25.0001 58.3003V56.8003C24.9829 56.6876 25.0111 56.5727 25.0787 56.4808C25.1462 56.3889 25.2474 56.3276 25.3601 56.3103C25.4724 56.2957 25.586 56.325 25.6773 56.3921C25.7686 56.4591 25.8305 56.5588 25.8501 56.6703C25.86 56.7131 25.86 56.7575 25.8501 56.8003V58.3403C25.8493 58.6983 25.7413 59.0478 25.5398 59.3437C25.3384 59.6396 25.0529 59.8683 24.7201 60.0003C22.9267 60.7219 21.0132 61.0985 19.0801 61.1103V61.1103Z" fill="#3E3126"/>
<path d="M19.2202 65.4199C17.8119 65.4199 16.4613 64.8604 15.4655 63.8646C14.4697 62.8688 13.9102 61.5182 13.9102 60.1099C13.893 59.9972 13.9212 59.8822 13.9887 59.7903C14.0563 59.6984 14.1575 59.6371 14.2702 59.6199C14.3825 59.6053 14.4961 59.6346 14.5874 59.7016C14.6787 59.7687 14.7406 59.8683 14.7602 59.9799C14.77 60.0227 14.77 60.0671 14.7602 60.1099C14.7602 61.2927 15.2301 62.4272 16.0665 63.2636C16.9029 64.1 18.0373 64.5699 19.2202 64.5699C20.4031 64.5699 21.5375 64.1 22.3739 63.2636C23.2103 62.4272 23.6802 61.2927 23.6802 60.1099V60.1099C23.663 59.9972 23.6912 59.8822 23.7587 59.7903C23.8263 59.6984 23.9275 59.6371 24.0402 59.6199C24.1525 59.6053 24.2661 59.6346 24.3574 59.7016C24.4487 59.7687 24.5106 59.8683 24.5302 59.9799C24.54 60.0227 24.54 60.0671 24.5302 60.1099C24.5302 61.5182 23.9708 62.8688 22.9749 63.8646C21.9791 64.8604 20.6285 65.4199 19.2202 65.4199V65.4199Z" fill="#3E3126"/>
<path d="M7.1498 35.8396C7.48118 35.8396 7.7498 35.571 7.7498 35.2397C7.7498 34.9083 7.48118 34.6396 7.1498 34.6396C6.81843 34.6396 6.5498 34.9083 6.5498 35.2397C6.5498 35.571 6.81843 35.8396 7.1498 35.8396Z" fill="#3E3126"/>
<path d="M9.76992 44.1502C10.1013 44.1502 10.3699 43.8816 10.3699 43.5502C10.3699 43.2188 10.1013 42.9502 9.76992 42.9502C9.43855 42.9502 9.16992 43.2188 9.16992 43.5502C9.16992 43.8816 9.43855 44.1502 9.76992 44.1502Z" fill="#3E3126"/>
<path d="M4.01016 9.32012C4.34153 9.32012 4.61016 9.05149 4.61016 8.72012C4.61016 8.38875 4.34153 8.12012 4.01016 8.12012C3.67879 8.12012 3.41016 8.38875 3.41016 8.72012C3.41016 9.05149 3.67879 9.32012 4.01016 9.32012Z" fill="#3E3126"/>
<path d="M5.19975 23.6997H5.07975C5.04291 23.6854 5.00928 23.6639 4.98077 23.6365C4.95227 23.6091 4.92946 23.5763 4.91366 23.5401C4.89786 23.5038 4.88939 23.4648 4.88872 23.4253C4.88804 23.3858 4.89519 23.3465 4.90975 23.3097V23.3097L6.55975 19.4097C6.57418 19.3672 6.59799 19.3284 6.62943 19.2963C6.66086 19.2641 6.69911 19.2395 6.74135 19.2241C6.78359 19.2088 6.82874 19.2031 6.87346 19.2075C6.91819 19.212 6.96135 19.2264 6.99975 19.2497C7.03658 19.2639 7.07011 19.2855 7.09832 19.3131C7.12652 19.3407 7.14879 19.3738 7.16377 19.4103C7.17875 19.4468 7.18612 19.486 7.18543 19.5254C7.18474 19.5649 7.176 19.6038 7.15975 19.6397V19.6397L5.45975 23.5397C5.43558 23.5879 5.39844 23.6285 5.35251 23.6567C5.30658 23.685 5.25368 23.6999 5.19975 23.6997V23.6997Z" fill="#3E3126"/>
<path d="M7.39038 21.8002H7.27038C7.19779 21.7693 7.14029 21.7111 7.11034 21.6381C7.08039 21.5651 7.08041 21.4832 7.11038 21.4103V21.4103L8.00038 19.3303C8.01457 19.2934 8.03613 19.2599 8.06373 19.2317C8.09134 19.2035 8.1244 19.1812 8.16091 19.1662C8.19742 19.1513 8.23661 19.1439 8.27606 19.1446C8.31552 19.1453 8.35442 19.154 8.39038 19.1703V19.1703C8.46206 19.205 8.51819 19.2653 8.54778 19.3393C8.57737 19.4133 8.5783 19.4956 8.55038 19.5703L7.67038 21.6502C7.64081 21.6975 7.59942 21.7361 7.55031 21.7624C7.5012 21.7888 7.44607 21.8018 7.39038 21.8002V21.8002Z" fill="#3E3126"/>
<path d="M9.70676 15.5111C10.696 14.0935 10.7197 12.4012 9.75952 11.7311C8.79936 11.061 7.21903 11.667 6.22974 13.0846C5.24045 14.5022 5.21683 16.1946 6.17699 16.8646C7.13714 17.5347 8.71747 16.9287 9.70676 15.5111Z" fill="#FFEFAE"/>
<path d="M13.8764 11.5482C14.3695 10.8417 14.38 9.99735 13.8999 9.66232C13.4198 9.32729 12.631 9.62845 12.1379 10.335C11.6448 11.0415 11.6343 11.8859 12.1144 12.2209C12.5944 12.5559 13.3833 12.2548 13.8764 11.5482Z" fill="#FFEFAE"/>
</g>
<defs>
<clipPath id="clip0_2_2616">
<rect width="38.4" height="65.42" fill="white"/>
</clipPath>
</defs>
</svg>
