<svg width="59" height="59" viewBox="0 0 59 59" fill="none" xmlns="http://www.w3.org/2000/svg">
<path d="M40.93 41.1595C41.3939 41.1595 41.77 40.7834 41.77 40.3195C41.77 39.8556 41.3939 39.4795 40.93 39.4795C40.4661 39.4795 40.09 39.8556 40.09 40.3195C40.09 40.7834 40.4661 41.1595 40.93 41.1595Z" fill="white"/>
<path d="M23.11 45.0802C26.9428 45.0802 30.05 41.9731 30.05 38.1402C30.05 34.3073 26.9428 31.2002 23.11 31.2002C19.2771 31.2002 16.17 34.3073 16.17 38.1402C16.17 41.9731 19.2771 45.0802 23.11 45.0802Z" fill="#FDC6A2"/>
<path d="M23.11 42.5095C25.5235 42.5095 27.48 40.553 27.48 38.1395C27.48 35.726 25.5235 33.7695 23.11 33.7695C20.6965 33.7695 18.74 35.726 18.74 38.1395C18.74 40.553 20.6965 42.5095 23.11 42.5095Z" fill="#F4A376"/>
<path d="M23.11 45.4496C21.6622 45.4496 20.247 45.0203 19.0432 44.2159C17.8394 43.4116 16.9012 42.2684 16.3472 40.9308C15.7932 39.5933 15.6482 38.1215 15.9306 36.7015C16.2131 35.2816 16.9102 33.9773 17.934 32.9536C18.9577 31.9298 20.262 31.2327 21.6819 30.9502C23.1019 30.6678 24.5737 30.8127 25.9112 31.3668C27.2488 31.9208 28.392 32.859 29.1963 34.0628C30.0007 35.2666 30.43 36.6818 30.43 38.1296V38.1296C30.43 40.071 29.6588 41.9328 28.286 43.3056C26.9132 44.6784 25.0514 45.4496 23.11 45.4496V45.4496ZM23.11 31.5796C21.8125 31.5796 20.5442 31.9643 19.4654 32.6851C18.3867 33.406 17.5458 34.4305 17.0493 35.6292C16.5528 36.8279 16.4229 38.1469 16.676 39.4194C16.9292 40.6919 17.5539 41.8608 18.4714 42.7782C19.3888 43.6956 20.5577 44.3204 21.8302 44.5735C23.1027 44.8266 24.4217 44.6967 25.6204 44.2002C26.8191 43.7037 27.8436 42.8629 28.5644 41.7841C29.2852 40.7053 29.67 39.437 29.67 38.1396V38.1396C29.67 36.3998 28.9788 34.7312 27.7486 33.501C26.5184 32.2707 24.8498 31.5796 23.11 31.5796V31.5796Z" fill="black"/>
<path d="M30.09 28.67C30.3551 28.67 30.57 28.4551 30.57 28.19C30.57 27.9249 30.3551 27.71 30.09 27.71C29.8249 27.71 29.61 27.9249 29.61 28.19C29.61 28.4551 29.8249 28.67 30.09 28.67Z" fill="white"/>
<path d="M43.06 41.0095L33.18 46.9495C32.2712 47.4929 31.1841 47.6539 30.1568 47.3971C29.1296 47.1403 28.2461 46.4866 27.7 45.5795V45.5795L15.06 24.4995L14.13 22.9495C13.5865 22.0407 13.4256 20.9536 13.6824 19.9263C13.9392 18.8991 14.5928 18.0156 15.5 17.4695V17.4695L25.37 11.5295C25.8204 11.2588 26.3197 11.0795 26.8394 11.0019C27.3591 10.9243 27.889 10.9498 28.3988 11.077C28.9087 11.2042 29.3884 11.4307 29.8107 11.7434C30.233 12.0561 30.5896 12.4489 30.86 12.8995V12.8995L44.46 35.5095C44.7309 35.9621 44.9097 36.4638 44.9859 36.9857C45.0622 37.5077 45.0345 38.0396 44.9044 38.5508C44.7742 39.062 44.5443 39.5424 44.2278 39.9643C43.9112 40.3863 43.5143 40.7415 43.06 41.0095V41.0095Z" fill="white"/>
<path d="M30.94 13.0098L44.37 35.3498L27.65 45.4398L14.21 23.0798L30.94 13.0098Z" fill="#DCFAFF"/>
<path d="M28.06 45.0795C27.9565 45.0768 27.8554 45.0479 27.7662 44.9955C27.677 44.943 27.6026 44.8686 27.55 44.7795L14.75 23.4495C14.669 23.3113 14.6456 23.1467 14.6849 22.9914C14.7242 22.8361 14.823 22.7025 14.96 22.6195L30.64 13.1995C30.7075 13.1576 30.7826 13.1296 30.861 13.117C30.9394 13.1044 31.0196 13.1075 31.0968 13.1261C31.174 13.1447 31.2467 13.1784 31.3108 13.2254C31.3749 13.2723 31.429 13.3315 31.47 13.3995C31.551 13.5377 31.5743 13.7022 31.5351 13.8575C31.4958 14.0128 31.397 14.1464 31.26 14.2295L16.06 23.3495L28.61 44.1595C28.6514 44.2276 28.6789 44.3032 28.6907 44.382C28.7026 44.4609 28.6986 44.5413 28.6791 44.6185C28.6595 44.6958 28.6248 44.7684 28.5769 44.8321C28.5289 44.8958 28.4688 44.9493 28.4 44.9895C28.3077 45.0493 28.1999 45.0806 28.09 45.0795H28.06Z" fill="#84C7CE"/>
<path d="M14.3 23.5696C14.2089 23.5697 14.1213 23.5342 14.056 23.4707C13.9906 23.4072 13.9526 23.3207 13.95 23.2296C13.9527 23.1698 13.9695 23.1114 13.999 23.0592C14.0285 23.0071 14.07 22.9627 14.12 22.9296L17.86 20.6796C17.9394 20.635 18.0331 20.6231 18.1211 20.6465C18.2092 20.6698 18.2847 20.7266 18.3315 20.8047C18.3784 20.8828 18.393 20.9761 18.3721 21.0648C18.3513 21.1535 18.2967 21.2305 18.22 21.2796L14.48 23.5296C14.424 23.5572 14.3623 23.5709 14.3 23.5696V23.5696Z" fill="black"/>
<path d="M27.74 45.9293C27.6472 45.9293 27.5581 45.8925 27.4925 45.8268C27.4269 45.7612 27.39 45.6722 27.39 45.5793C27.3908 45.5204 27.4068 45.4627 27.4366 45.4118C27.4664 45.361 27.5089 45.3188 27.56 45.2893L30.56 43.4993C30.5986 43.4759 30.6415 43.4605 30.6862 43.4539C30.7309 43.4472 30.7764 43.4496 30.8201 43.4608C30.8639 43.4719 30.905 43.4917 30.941 43.5189C30.977 43.5462 31.0073 43.5803 31.03 43.6193C31.0534 43.658 31.0688 43.7009 31.0754 43.7455C31.0821 43.7902 31.0797 43.8357 31.0685 43.8795C31.0574 43.9232 31.0376 43.9643 31.0104 44.0004C30.9832 44.0364 30.949 44.0666 30.91 44.0893L27.91 45.8793C27.8576 45.9082 27.7996 45.9253 27.74 45.9293V45.9293Z" fill="black"/>
<path d="M34.75 44.4798C34.6174 44.4798 34.4902 44.4271 34.3964 44.3334C34.3027 44.2396 34.25 44.1124 34.25 43.9798C34.2504 43.8937 34.2727 43.8091 34.3146 43.7339C34.3566 43.6587 34.4169 43.5954 34.49 43.5498L39.41 40.5998C39.4665 40.565 39.5294 40.5417 39.595 40.5314C39.6606 40.5211 39.7275 40.524 39.792 40.5399C39.8565 40.5558 39.9171 40.5843 39.9704 40.6239C40.0237 40.6635 40.0686 40.7132 40.1025 40.7704C40.1364 40.8275 40.1585 40.8907 40.1677 40.9565C40.1768 41.0222 40.1728 41.0892 40.1558 41.1533C40.1388 41.2175 40.1092 41.2777 40.0687 41.3303C40.0282 41.3829 39.9777 41.4269 39.92 41.4598L35.06 44.4098C34.9676 44.4677 34.8583 44.4924 34.75 44.4798V44.4798Z" fill="#C3E9ED"/>
<path d="M41.78 33.0996C41.6758 33.0997 41.5732 33.0731 41.4822 33.0223C41.3912 32.9716 41.3147 32.8983 41.26 32.8096L38.16 27.6496C38.0781 27.5126 38.0532 27.3489 38.0906 27.1938C38.128 27.0386 38.2247 26.9043 38.36 26.8196C38.4275 26.7777 38.5026 26.7497 38.581 26.7371C38.6594 26.7245 38.7396 26.7276 38.8168 26.7462C38.894 26.7648 38.9667 26.7985 39.0308 26.8455C39.0949 26.8924 39.149 26.9516 39.19 27.0196V27.0196L42.3 32.1896C42.3753 32.3305 42.3924 32.4953 42.3475 32.6486C42.3026 32.802 42.1994 32.9316 42.06 33.0096C41.9649 33.0617 41.8584 33.0892 41.75 33.0896L41.78 33.0996Z" fill="white"/>
<path d="M36.57 24.4398C36.4658 24.4399 36.3632 24.4133 36.2722 24.3625C36.1812 24.3117 36.1047 24.2385 36.05 24.1498L32.95 19.0098C32.8686 18.8743 32.844 18.7122 32.8814 18.5586C32.9189 18.4051 33.0154 18.2726 33.15 18.1898C33.2171 18.1465 33.2922 18.1174 33.3709 18.104C33.4496 18.0907 33.5302 18.0934 33.6078 18.1121C33.6854 18.1308 33.7584 18.1651 33.8223 18.2128C33.8863 18.2605 33.9399 18.3207 33.98 18.3898V18.3898L37.06 23.5198C37.1014 23.5879 37.1289 23.6635 37.1407 23.7423C37.1526 23.8211 37.1486 23.9015 37.1291 23.9788C37.1095 24.0561 37.0748 24.1287 37.0269 24.1924C36.9789 24.2561 36.9188 24.3096 36.85 24.3498C36.7577 24.4095 36.6499 24.4408 36.54 24.4398H36.57Z" fill="white"/>
<path d="M31.16 48.0098C30.3884 48.0103 29.6299 47.8106 28.9586 47.4302C28.2873 47.0499 27.7262 46.5019 27.33 45.8398L13.73 23.1898C13.1238 22.1747 12.9445 20.9609 13.2312 19.8139C13.518 18.6669 14.2474 17.6802 15.26 17.0698L25.13 11.1298C26.1459 10.5205 27.3622 10.3393 28.5116 10.6262C29.661 10.9131 30.6495 11.6445 31.26 12.6598L44.86 35.2698C45.4662 36.2849 45.6455 37.4988 45.3587 38.6457C45.072 39.7927 44.3425 40.7794 43.33 41.3898V41.3898L33.45 47.3298C32.764 47.7633 31.9714 47.9986 31.16 48.0098V48.0098ZM27.43 11.4298C26.7886 11.4235 26.1582 11.5967 25.61 11.9298L15.74 17.8698C14.9382 18.3516 14.3604 19.1319 14.1335 20.0394C13.9066 20.9469 14.0492 21.9074 14.53 22.7098L28.13 45.3198C28.6118 46.1216 29.3921 46.6994 30.2996 46.9263C31.2071 47.1532 32.1676 47.0106 32.97 46.5298L42.85 40.5898C43.6518 40.108 44.2296 39.3277 44.4565 38.4202C44.6833 37.5127 44.5407 36.5522 44.06 35.7498L30.46 13.1398C30.1479 12.6153 29.704 12.1816 29.1725 11.8816C28.641 11.5817 28.0403 11.4259 27.43 11.4298Z" fill="black"/>
<path d="M21.77 17.08C21.7003 17.0897 21.6296 17.0897 21.56 17.08C21.449 17.0524 21.3446 17.0032 21.2526 16.9353C21.1606 16.8673 21.083 16.7819 21.024 16.684C20.965 16.586 20.9259 16.4774 20.9089 16.3643C20.892 16.2512 20.8974 16.1359 20.925 16.025C20.9526 15.914 21.0017 15.8095 21.0697 15.7176C21.1376 15.6256 21.223 15.5479 21.321 15.489C21.4189 15.43 21.5276 15.3909 21.6406 15.3739C21.7537 15.3569 21.869 15.3624 21.98 15.39C22.1921 15.4358 22.3795 15.5592 22.5053 15.7361C22.6311 15.9129 22.6862 16.1304 22.6599 16.3458C22.6336 16.5612 22.5278 16.759 22.3631 16.9004C22.1985 17.0418 21.9869 17.1165 21.77 17.11V17.08ZM21.77 15.74C21.7083 15.7385 21.647 15.7498 21.5899 15.773C21.5328 15.7963 21.4811 15.831 21.4379 15.8751C21.3948 15.9192 21.3612 15.9716 21.3392 16.0292C21.3172 16.0868 21.3072 16.1484 21.31 16.21C21.3092 16.3134 21.3434 16.4141 21.4069 16.4957C21.4704 16.5774 21.5595 16.6352 21.66 16.66C21.721 16.6789 21.7852 16.6853 21.8487 16.6786C21.9122 16.672 21.9737 16.6525 22.0294 16.6212C22.0852 16.59 22.1339 16.5478 22.1728 16.4971C22.2116 16.4464 22.2397 16.3883 22.2554 16.3264C22.271 16.2645 22.2739 16.2 22.2638 16.1369C22.2537 16.0739 22.2309 16.0135 22.1967 15.9596C22.1625 15.9056 22.1176 15.8592 22.0649 15.8232C22.0122 15.7871 21.9527 15.7622 21.89 15.75L21.77 15.74Z" fill="black"/>
<path d="M34.61 44.0094C34.5623 44.0108 34.5149 44.0024 34.4706 43.9848C34.4263 43.9672 34.3861 43.9407 34.3524 43.907C34.3186 43.8733 34.2922 43.8331 34.2746 43.7888C34.257 43.7445 34.2486 43.697 34.25 43.6494C34.2485 43.5859 34.2634 43.5232 34.2931 43.4671C34.3229 43.4111 34.3666 43.3637 34.42 43.3294L39.34 40.3294C39.3806 40.3039 39.4258 40.2869 39.4731 40.2791C39.5203 40.2714 39.5686 40.2732 39.6152 40.2844C39.6618 40.2955 39.7056 40.3159 39.7442 40.3442C39.7828 40.3726 39.8154 40.4083 39.84 40.4494C39.8657 40.4907 39.8829 40.5367 39.8908 40.5848C39.8986 40.6328 39.8969 40.6819 39.8858 40.7293C39.8747 40.7767 39.8543 40.8214 39.8258 40.8608C39.7974 40.9003 39.7614 40.9338 39.72 40.9594L34.8 43.9094C34.7501 43.9636 34.6829 43.9989 34.61 44.0094V44.0094Z" fill="black"/>
<path d="M30.91 22.4297L35.45 19.4897C35.6475 19.3612 35.8684 19.273 36.1001 19.2301C36.3318 19.1872 36.5696 19.1905 36.8 19.2397C37.0304 19.289 37.2489 19.3832 37.4428 19.517C37.6367 19.6509 37.8022 19.8217 37.93 20.0197C38.0584 20.2172 38.1467 20.4381 38.1895 20.6698C38.2324 20.9014 38.2292 21.1393 38.1799 21.3697C38.1307 21.6001 38.0364 21.8185 37.9026 22.0124C37.7688 22.2063 37.598 22.3719 37.4 22.4997L32.85 25.4397C32.6525 25.5681 32.4316 25.6563 32.1999 25.6992C31.9682 25.7421 31.7303 25.7388 31.4999 25.6896C31.2695 25.6404 31.0511 25.5461 30.8572 25.4123C30.6633 25.2784 30.4977 25.1076 30.37 24.9097V24.9097C30.1141 24.5088 30.0273 24.023 30.1285 23.5583C30.2297 23.0936 30.5106 22.6879 30.91 22.4297V22.4297Z" fill="#FDC6A2"/>
<path d="M31.88 26.0899C31.4063 26.0985 30.9429 25.9511 30.5612 25.6704C30.1795 25.3897 29.9007 24.9914 29.7676 24.5366C29.6346 24.0819 29.6548 23.596 29.8251 23.1539C29.9954 22.7118 30.3063 22.3379 30.71 22.0899L35.25 19.1499C35.4883 18.9956 35.7547 18.8897 36.034 18.8384C36.3133 18.787 36.5999 18.7912 36.8775 18.8506C37.1552 18.9101 37.4184 19.0236 37.6522 19.1847C37.8859 19.3459 38.0857 19.5515 38.24 19.7899C38.3943 20.0282 38.5001 20.2946 38.5515 20.5739C38.6028 20.8531 38.5987 21.1398 38.5392 21.4174C38.4798 21.6951 38.3663 21.9583 38.2051 22.1921C38.044 22.4258 37.8383 22.6256 37.6 22.7799L33.06 25.7499C32.7071 25.9734 32.2977 26.0914 31.88 26.0899V26.0899ZM36.42 19.5699C36.1465 19.5708 35.8792 19.6507 35.65 19.7999L31.11 22.7399C30.7931 22.9441 30.5702 23.2658 30.4905 23.6344C30.4108 24.0029 30.4808 24.3879 30.685 24.7049C30.8892 25.0218 31.211 25.2446 31.5795 25.3243C31.948 25.404 32.3331 25.3341 32.65 25.1299L37.2 22.1899C37.4345 22.0351 37.6183 21.8146 37.7282 21.556C37.8382 21.2974 37.8696 21.0121 37.8183 20.7358C37.7671 20.4595 37.6356 20.2044 37.4403 20.0024C37.245 19.8003 36.9944 19.6603 36.72 19.5999C36.6213 19.5795 36.5208 19.5694 36.42 19.5699V19.5699Z" fill="black"/>
<path d="M32.85 25.44L37.4 22.49C37.7981 22.2337 38.2815 22.1456 38.7444 22.2449C39.2074 22.3443 39.6121 22.6229 39.87 23.02V23.02C39.9984 23.2175 40.0867 23.4384 40.1295 23.6701C40.1724 23.9018 40.1692 24.1396 40.1199 24.37C40.0707 24.6004 39.9764 24.8189 39.8426 25.0128C39.7088 25.2067 39.538 25.3722 39.34 25.5L34.79 28.44C34.5933 28.5682 34.3731 28.6562 34.1422 28.699C33.9113 28.7417 33.6743 28.7384 33.4447 28.6891C33.2151 28.6398 32.9975 28.5456 32.8045 28.4119C32.6115 28.2782 32.4468 28.1076 32.32 27.91C32.1918 27.7133 32.1038 27.4931 32.061 27.2622C32.0183 27.0313 32.0216 26.7943 32.0709 26.5647C32.1201 26.3351 32.2143 26.1175 32.3481 25.9245C32.4818 25.7315 32.6524 25.5668 32.85 25.44V25.44Z" fill="#FDC6A2"/>
<path d="M33.83 29.0994C33.6754 29.0982 33.5213 29.0814 33.37 29.0494C32.9538 28.9587 32.5736 28.7471 32.2774 28.441C31.9812 28.1349 31.7821 27.748 31.7051 27.3291C31.6282 26.9101 31.6768 26.4777 31.8449 26.0863C32.0131 25.6949 32.2931 25.362 32.65 25.1294L37.2 22.1794C37.6812 21.8847 38.2585 21.7899 38.8087 21.9155C39.3588 22.041 39.8379 22.3768 40.1437 22.851C40.4494 23.3253 40.5574 23.9003 40.4446 24.4532C40.3317 25.0061 40.0071 25.4928 39.54 25.8094V25.8094L34.99 28.7494C34.6466 28.9786 34.2428 29.1004 33.83 29.0994V29.0994ZM38.37 22.5694C38.0963 22.5686 37.8284 22.6486 37.6 22.7994L33.06 25.7494C32.8974 25.8498 32.7568 25.9823 32.647 26.1387C32.5371 26.2951 32.4602 26.4722 32.4209 26.6593C32.3817 26.8463 32.3808 27.0394 32.4185 27.2268C32.4561 27.4142 32.5315 27.592 32.64 27.7494C32.7404 27.912 32.8729 28.0525 33.0293 28.1624C33.1857 28.2722 33.3628 28.3491 33.5499 28.3884C33.7369 28.4277 33.93 28.4285 34.1174 28.3909C34.3048 28.3532 34.4826 28.2779 34.64 28.1694L39.19 25.2294C39.4508 25.0644 39.6507 24.8189 39.7596 24.5302C39.8684 24.2414 39.8802 23.925 39.7932 23.6289C39.7062 23.3329 39.5251 23.0732 39.2773 22.8892C39.0295 22.7053 38.7286 22.607 38.42 22.6094L38.37 22.5694Z" fill="black"/>
<path d="M34.79 28.4394L39.34 25.4994C39.5375 25.371 39.7584 25.2828 39.9901 25.2399C40.2218 25.197 40.4596 25.2002 40.69 25.2495C40.9204 25.2987 41.1389 25.393 41.3328 25.5268C41.5267 25.6607 41.6922 25.8315 41.82 26.0294V26.0294C42.0768 26.4291 42.1652 26.9141 42.0659 27.3786C41.9666 27.8432 41.6877 28.2496 41.29 28.5094L36.74 31.4494C36.5425 31.5779 36.3216 31.6661 36.0899 31.709C35.8582 31.7519 35.6203 31.7486 35.3899 31.6994C35.1595 31.6501 34.9411 31.5559 34.7472 31.422C34.5533 31.2882 34.3877 31.1174 34.26 30.9194V30.9194C34.0032 30.5198 33.9148 30.0348 34.0141 29.5702C34.1134 29.1057 34.3923 28.6992 34.79 28.4394V28.4394Z" fill="#FDC6A2"/>
<path d="M36.74 31.4497L41.29 28.5097C41.4849 28.38 41.7035 28.2902 41.9332 28.2451C42.1629 28.2001 42.3993 28.2009 42.6287 28.2473C42.8581 28.2937 43.0762 28.385 43.2703 28.5158C43.4644 28.6466 43.6308 28.8144 43.76 29.0097V29.0097C43.8882 29.2064 43.9762 29.4265 44.019 29.6574C44.0617 29.8883 44.0584 30.1254 44.0091 30.355C43.9598 30.5846 43.8656 30.8021 43.7319 30.9952C43.5982 31.1882 43.4276 31.3528 43.23 31.4797L38.68 34.4797C38.2819 34.7359 37.7985 34.8241 37.3355 34.7247C36.8726 34.6254 36.4679 34.3467 36.21 33.9497V33.9497C36.0815 33.7521 35.9933 33.5312 35.9504 33.2996C35.9075 33.0679 35.9108 32.83 35.9601 32.5996C36.0093 32.3692 36.1035 32.1508 36.2374 31.9569C36.3712 31.763 36.542 31.5974 36.74 31.4697V31.4497Z" fill="#FDC6A2"/>
<path d="M35.77 32.1099C35.6154 32.1081 35.4614 32.0914 35.31 32.0599C34.8942 31.9669 34.515 31.7536 34.2196 31.4466C33.9243 31.1395 33.7258 30.7523 33.649 30.3333C33.5723 29.9142 33.6205 29.4818 33.7879 29.09C33.9552 28.6981 34.2342 28.3642 34.59 28.1299L39.14 25.1899C39.3783 25.0356 39.6447 24.9298 39.924 24.8784C40.2033 24.8271 40.4899 24.8312 40.7675 24.8907C41.0452 24.9501 41.3084 25.0636 41.5422 25.2248C41.7759 25.3859 41.9757 25.5916 42.13 25.8299C42.2843 26.0683 42.3901 26.3347 42.4415 26.6139C42.4928 26.8932 42.4887 27.1798 42.4292 27.4575C42.3698 27.7351 42.2563 27.9983 42.0951 28.2321C41.934 28.4659 41.7283 28.6656 41.49 28.8199L36.94 31.7599C36.5908 31.9847 36.1852 32.106 35.77 32.1099V32.1099ZM40.31 25.5799C40.0365 25.5808 39.7692 25.6607 39.54 25.8099L34.99 28.7499C34.6731 28.9541 34.4502 29.2759 34.3705 29.6444C34.2908 30.0129 34.3608 30.398 34.565 30.7149C34.7692 31.0318 35.091 31.2547 35.4595 31.3344C35.828 31.4141 36.2131 31.3441 36.53 31.1399V31.1399L41.06 28.1999C41.2945 28.0451 41.4783 27.8246 41.5882 27.566C41.6982 27.3074 41.7296 27.0222 41.6783 26.7458C41.6271 26.4695 41.4956 26.2144 41.3003 26.0124C41.105 25.8104 40.8544 25.6704 40.58 25.6099C40.4802 25.6001 40.3797 25.6001 40.28 25.6099L40.31 25.5799Z" fill="black"/>
<path d="M37.72 35.1098C37.5651 35.1136 37.4104 35.0968 37.26 35.0598C36.8438 34.9692 36.4636 34.7575 36.1674 34.4514C35.8712 34.1453 35.6721 33.7585 35.5951 33.3395C35.5182 32.9205 35.5668 32.4882 35.7349 32.0968C35.9031 31.7054 36.1831 31.3724 36.54 31.1398L41.06 28.1998C41.539 27.9336 42.1013 27.8593 42.633 27.9921C43.1646 28.125 43.626 28.4549 43.9235 28.9151C44.221 29.3754 44.3324 29.9315 44.2352 30.4708C44.138 31.0102 43.8394 31.4924 43.4 31.8198L38.85 34.7698C38.5124 34.9863 38.121 35.1041 37.72 35.1098V35.1098ZM42.26 28.5898C41.9863 28.589 41.7184 28.669 41.49 28.8198L36.94 31.7598C36.6231 31.964 36.4002 32.2858 36.3205 32.6543C36.2408 33.0228 36.3108 33.4079 36.515 33.7248C36.7192 34.0418 37.041 34.2646 37.4095 34.3443C37.778 34.424 38.1631 34.354 38.48 34.1498L43.06 31.1998C43.2226 31.0994 43.3631 30.9669 43.473 30.8105C43.5828 30.6541 43.6597 30.477 43.699 30.2899C43.7383 30.1029 43.7392 29.9098 43.7015 29.7224C43.6638 29.535 43.5885 29.3572 43.48 29.1998C43.3808 29.0421 43.2509 28.9059 43.098 28.7994C42.9451 28.6929 42.7723 28.6182 42.59 28.5798C42.4902 28.57 42.3897 28.57 42.29 28.5798L42.26 28.5898Z" fill="black"/>
<path d="M17.8563 27.3512L16.6718 30.3024C16.0731 31.7938 16.7969 33.4882 18.2884 34.0869L18.2977 34.0906C19.7891 34.6893 21.4835 33.9655 22.0822 32.474L23.2668 29.5229C23.8654 28.0314 23.1417 26.337 21.6502 25.7384L21.6409 25.7346C20.1494 25.136 18.455 25.8597 17.8563 27.3512Z" fill="#FDC6A2"/>
<path d="M19.37 34.6798C18.9354 34.6824 18.5046 34.5989 18.1025 34.4342C17.7004 34.2694 17.3349 34.0266 17.0271 33.7197C16.7194 33.4129 16.4754 33.0481 16.3094 32.6465C16.1434 32.2449 16.0587 31.8143 16.06 31.3798C16.0595 30.9613 16.141 30.5468 16.3 30.1598L17.48 27.2198C17.6409 26.8186 17.8792 26.453 18.1813 26.1439C18.4835 25.8348 18.8435 25.5883 19.241 25.4184C19.6384 25.2484 20.0654 25.1584 20.4976 25.1535C20.9299 25.1486 21.3588 25.2289 21.76 25.3898C22.1612 25.5506 22.5267 25.789 22.8358 26.0911C23.1449 26.3933 23.3915 26.7533 23.5614 27.1508C23.7313 27.5482 23.8213 27.9752 23.8262 28.4074C23.8311 28.8396 23.7509 29.2686 23.59 29.6698L22.43 32.6098C22.1857 33.2215 21.7635 33.7458 21.218 34.1148C20.6724 34.4839 20.0286 34.6807 19.37 34.6798V34.6798ZM20.56 25.9098C20.0531 25.9102 19.5579 26.0618 19.1376 26.345C18.7172 26.6282 18.3908 27.0302 18.2 27.4998L17.06 30.4398C16.8434 31.0571 16.8733 31.7343 17.1436 32.3301C17.4138 32.9259 17.9036 33.3944 18.5108 33.6381C19.118 33.8817 19.7958 33.8817 20.4029 33.638C21.0101 33.3942 21.4998 32.9256 21.77 32.3298L22.95 29.3898C23.1071 29.0021 23.1657 28.5816 23.1204 28.1658C23.0752 27.75 22.9276 27.3519 22.6908 27.0071C22.454 26.6623 22.1354 26.3816 21.7636 26.1901C21.3917 25.9986 20.9782 25.9023 20.56 25.9098V25.9098Z" fill="black"/>
<path d="M36.09 40.2701L34.43 41.3701L22.15 18.6801L23.81 17.5801L36.09 40.2701Z" fill="white"/>
<path d="M38.03 38.9996L36.99 39.6696L24.71 16.9796L25.75 16.3096L38.03 38.9996Z" fill="white"/>
<path d="M32.56 43.0101C32.5136 43.0115 32.4675 43.0034 32.4244 42.9863C32.3813 42.9692 32.3422 42.9435 32.3094 42.9107C32.2766 42.8779 32.2509 42.8388 32.2338 42.7957C32.2167 42.7526 32.2086 42.7065 32.21 42.6601C32.2086 42.6008 32.2238 42.5422 32.2538 42.491C32.2839 42.4398 32.3275 42.3979 32.38 42.3701L44.29 35.2101C44.3682 35.1637 44.4617 35.1503 44.5498 35.1728C44.638 35.1953 44.7136 35.2519 44.76 35.3301C44.8064 35.4084 44.8198 35.5018 44.7973 35.59C44.7748 35.6781 44.7182 35.7537 44.64 35.8001L32.73 43.0101C32.6742 43.0245 32.6157 43.0245 32.56 43.0101Z" fill="black"/>
<path d="M19.43 20.4896C19.3389 20.487 19.2524 20.449 19.1889 20.3836C19.1254 20.3183 19.0899 20.2307 19.09 20.1396C19.0897 20.0817 19.1043 20.0246 19.1323 19.9738C19.1603 19.9231 19.2008 19.8803 19.25 19.8496L30.85 12.8496C30.9298 12.8059 31.0236 12.795 31.1114 12.8193C31.1991 12.8436 31.2739 12.9011 31.32 12.9796C31.3434 13.0183 31.3588 13.0612 31.3654 13.1058C31.3721 13.1505 31.3697 13.196 31.3585 13.2398C31.3474 13.2835 31.3276 13.3246 31.3004 13.3607C31.2732 13.3967 31.239 13.4269 31.2 13.4496L19.61 20.4496C19.5543 20.4779 19.4924 20.4917 19.43 20.4896V20.4896Z" fill="black"/>
</svg>
