<svg width="66" height="49" viewBox="0 0 66 49" fill="none" xmlns="http://www.w3.org/2000/svg">
<g clip-path="url(#clip0_2_15230)">
<path opacity="0.5" d="M16.415 4.33301V25.0765C16.4203 25.9634 16.772 26.8125 17.3941 27.4397C18.0161 28.0668 18.8582 28.4215 19.7379 28.4268L53.315 28.5672C54.1989 28.5672 55.0466 28.2132 55.6716 27.583C56.2966 26.9528 56.6478 26.0981 56.6478 25.2069V4.47344L16.415 4.33301Z" fill="#9CE5E5"/>
<path d="M4.97462 48.5382H2.84559C1.55225 48.5382 0.517578 47.1439 0.517578 45.3986V9.41846C0.517578 7.67312 1.51245 6.25879 2.84559 6.25879H4.97462C3.69123 6.25879 2.64661 7.67312 2.64661 9.41846V45.3986C2.59687 47.1439 3.64149 48.5382 4.97462 48.5382Z" fill="#CFB0FF"/>
<path d="M54.7979 48.9895H49.3958C49.2797 48.9895 49.1683 48.9431 49.0862 48.8603C49.0041 48.7775 48.958 48.6653 48.958 48.5482C48.958 48.4311 49.0041 48.3189 49.0862 48.2361C49.1683 48.1533 49.2797 48.1068 49.3958 48.1068H54.7979C55.513 48.1068 56.1987 47.8204 56.7044 47.3107C57.21 46.8009 57.494 46.1095 57.494 45.3885V9.41841C57.494 8.69746 57.21 8.00605 56.7044 7.49626C56.1987 6.98648 55.513 6.70008 54.7979 6.70008C54.6818 6.70008 54.5705 6.65359 54.4884 6.57082C54.4063 6.48805 54.3602 6.37579 54.3602 6.25873C54.3602 6.14168 54.4063 6.02942 54.4884 5.94665C54.5705 5.86388 54.6818 5.81738 54.7979 5.81738C55.267 5.81738 55.7314 5.91053 56.1647 6.09149C56.598 6.27246 56.9918 6.53771 57.3234 6.8721C57.6551 7.20648 57.9182 7.60346 58.0977 8.04035C58.2771 8.47725 58.3695 8.94551 58.3695 9.41841V45.3885C58.3695 45.8614 58.2771 46.3297 58.0977 46.7666C57.9182 47.2035 57.6551 47.6004 57.3234 47.9348C56.9918 48.2692 56.598 48.5345 56.1647 48.7154C55.7314 48.8964 55.267 48.9895 54.7979 48.9895Z" fill="#3E3126"/>
<path d="M46.4009 4.64397H14.1371C14.0184 4.64397 13.9045 4.59642 13.8206 4.51177C13.7366 4.42712 13.6895 4.31231 13.6895 4.19259C13.6895 4.07288 13.7366 3.95807 13.8206 3.87342C13.9045 3.78877 14.0184 3.74121 14.1371 3.74121H46.4009C46.5197 3.74121 46.6335 3.78877 46.7175 3.87342C46.8015 3.95807 46.8486 4.07288 46.8486 4.19259C46.8486 4.31231 46.8015 4.42712 46.7175 4.51177C46.6335 4.59642 46.5197 4.64397 46.4009 4.64397Z" fill="#3E3126"/>
<path d="M13.7293 6.68055H11.4709C11.3549 6.68055 11.2435 6.63405 11.1614 6.55128C11.0793 6.46852 11.0332 6.35626 11.0332 6.2392C11.0332 6.12215 11.0793 6.00989 11.1614 5.92712C11.2435 5.84435 11.3549 5.79785 11.4709 5.79785H13.7293C13.8454 5.79785 13.9568 5.84435 14.0388 5.92712C14.1209 6.00989 14.1671 6.12215 14.1671 6.2392C14.1671 6.35626 14.1209 6.46852 14.0388 6.55128C13.9568 6.63405 13.8454 6.68055 13.7293 6.68055Z" fill="#3E3126"/>
<path d="M53.5538 8.42578H7.17273C6.06284 8.42578 5.16309 9.33294 5.16309 10.452V44.2655C5.16309 45.3845 6.06284 46.2917 7.17273 46.2917H53.5538C54.6637 46.2917 55.5634 45.3845 55.5634 44.2655V10.452C55.5634 9.33294 54.6637 8.42578 53.5538 8.42578Z" fill="#7C6887"/>
<path opacity="0.5" d="M62.2696 27.8749C62.0094 28.4707 61.5832 28.9774 61.0428 29.3335C60.5023 29.6897 59.8709 29.8799 59.2253 29.881L25.6383 29.7406C24.7587 29.7406 23.9151 29.389 23.2922 28.7629C22.6693 28.1368 22.3181 27.2872 22.3154 26.4004V6.40918H24.1559V25.7885C24.1586 26.3428 24.3788 26.8734 24.7685 27.2644C25.1581 27.6554 25.6855 27.8749 26.2352 27.8749H62.2696Z" fill="#3D3344"/>
<path d="M5.27307 23.5826C5.19976 23.5855 5.12809 23.5602 5.07264 23.5117C5.0172 23.4633 4.98214 23.3954 4.97461 23.3218V10.4223C4.97461 9.81043 5.21569 9.22362 5.64481 8.79096C6.07393 8.3583 6.65595 8.11523 7.26282 8.11523H15.7392C15.8122 8.11773 15.8817 8.14813 15.9334 8.20027C15.9851 8.25241 16.0152 8.3224 16.0177 8.39609C16.0191 8.43167 16.0134 8.46715 16.0011 8.50053C15.9888 8.5339 15.9702 8.5645 15.9461 8.59059C15.9221 8.61667 15.8932 8.63773 15.8611 8.65255C15.829 8.66737 15.7943 8.67566 15.7591 8.67695H7.28272C6.82361 8.67695 6.3833 8.86084 6.05866 9.18815C5.73402 9.51547 5.55164 9.9594 5.55164 10.4223V23.3017C5.54696 23.3747 5.5161 23.4434 5.46484 23.4951C5.41358 23.5468 5.34542 23.5779 5.27307 23.5826Z" fill="#3E3126"/>
<path d="M53.6638 46.5322H7.28272C6.98056 46.5348 6.68087 46.4771 6.40095 46.3623C6.12103 46.2476 5.86642 46.0781 5.65183 45.8636C5.43724 45.6491 5.26691 45.3938 5.15067 45.1126C5.03444 44.8314 4.9746 44.5298 4.97461 44.2251V31.3557C4.97708 31.2873 5.00512 31.2224 5.05311 31.174C5.10109 31.1257 5.16546 31.0974 5.23328 31.0949C5.30637 31.0974 5.37579 31.1278 5.4275 31.1799C5.47922 31.2321 5.50936 31.3021 5.51184 31.3758V44.2151C5.51967 44.678 5.7076 45.1194 6.03513 45.444C6.36265 45.7686 6.80356 45.9504 7.26282 45.9504H53.6638C54.123 45.9451 54.5618 45.7582 54.8856 45.4298C55.2094 45.1015 55.3923 44.658 55.3949 44.195V29.8912C55.3974 29.8175 55.4275 29.7475 55.4792 29.6954C55.5309 29.6432 55.6003 29.6129 55.6734 29.6104C55.7482 29.613 55.8191 29.6447 55.871 29.699C55.923 29.7533 55.952 29.8258 55.952 29.9012V44.195C55.9601 44.8018 55.7307 45.3873 55.3135 45.8248C54.8964 46.2622 54.3251 46.5164 53.7235 46.5322H53.6638Z" fill="#3E3126"/>
<path d="M5.27307 29.8517C5.19976 29.8546 5.12809 29.8293 5.07264 29.7808C5.0172 29.7324 4.98214 29.6644 4.97461 29.5909V26.5816C4.97709 26.5079 5.00723 26.438 5.05895 26.3858C5.11066 26.3337 5.18008 26.3033 5.25317 26.3008C5.32552 26.3055 5.39368 26.3366 5.44494 26.3883C5.49621 26.44 5.52706 26.5087 5.53174 26.5816V29.5307C5.53732 29.5691 5.53492 29.6084 5.52469 29.6458C5.51446 29.6833 5.49662 29.7182 5.4723 29.7484C5.44799 29.7786 5.41773 29.8033 5.38343 29.8211C5.34914 29.8389 5.31156 29.8493 5.27307 29.8517Z" fill="#3E3126"/>
<path opacity="0.35" d="M36.4719 41.1061C36.7411 41.1061 36.9594 40.886 36.9594 40.6146C36.9594 40.3431 36.7411 40.123 36.4719 40.123C36.2026 40.123 35.9844 40.3431 35.9844 40.6146C35.9844 40.886 36.2026 41.1061 36.4719 41.1061Z" fill="#3D3344"/>
<path opacity="0.5" d="M53.5544 43.9942H38.2731V43.8739C38.2731 43.6717 38.1935 43.4778 38.0517 43.3348C37.9099 43.1919 37.7176 43.1115 37.517 43.1115C37.3165 43.1115 37.1242 43.1919 36.9824 43.3348C36.8406 43.4778 36.7609 43.6717 36.7609 43.8739V43.9942H35.6168C35.6431 43.9164 35.6598 43.8355 35.6666 43.7535C35.6666 43.5167 35.5733 43.2897 35.4072 43.1222C35.2412 42.9548 35.016 42.8608 34.7811 42.8608C34.5463 42.8608 34.3211 42.9548 34.155 43.1222C33.989 43.2897 33.8957 43.5167 33.8957 43.7535C33.8861 43.8335 33.8861 43.9143 33.8957 43.9942H7.17334C6.64563 43.9942 6.13953 43.7829 5.76638 43.4067C5.39323 43.0304 5.18359 42.5202 5.18359 41.9881V44.2851C5.18359 44.8172 5.39323 45.3275 5.76638 45.7037C6.13953 46.0799 6.64563 46.2913 7.17334 46.2913H53.5544C54.0821 46.2913 54.5882 46.0799 54.9614 45.7037C55.3345 45.3275 55.5442 44.8172 55.5442 44.2851V41.958C55.5442 42.4901 55.3345 43.0003 54.9614 43.3766C54.5882 43.7528 54.0821 43.9641 53.5544 43.9641V43.9942Z" fill="#3D3344"/>
<path opacity="0.35" d="M34.6809 40.3938C34.8348 40.3938 34.9595 40.268 34.9595 40.1129C34.9595 39.9578 34.8348 39.832 34.6809 39.832C34.5271 39.832 34.4023 39.9578 34.4023 40.1129C34.4023 40.268 34.5271 40.3938 34.6809 40.3938Z" fill="#3D3344"/>
<path opacity="0.35" d="M38.4722 40.9652C38.5766 40.9652 38.6613 40.8798 38.6613 40.7746C38.6613 40.6693 38.5766 40.584 38.4722 40.584C38.3678 40.584 38.2832 40.6693 38.2832 40.7746C38.2832 40.8798 38.3678 40.9652 38.4722 40.9652Z" fill="#3D3344"/>
<path opacity="0.35" d="M37.2186 39.24C37.4494 39.24 37.6365 39.0514 37.6365 38.8188C37.6365 38.5861 37.4494 38.3975 37.2186 38.3975C36.9879 38.3975 36.8008 38.5861 36.8008 38.8188C36.8008 39.0514 36.9879 39.24 37.2186 39.24Z" fill="#3D3344"/>
<path opacity="0.35" d="M32.9803 40.4939C33.2111 40.4939 33.3982 40.3053 33.3982 40.0727C33.3982 39.84 33.2111 39.6514 32.9803 39.6514C32.7496 39.6514 32.5625 39.84 32.5625 40.0727C32.5625 40.3053 32.7496 40.4939 32.9803 40.4939Z" fill="#3D3344"/>
<path d="M15.9381 21.1045C15.9381 20.5339 15.4793 20.0713 14.9134 20.0713C14.3475 20.0713 13.8887 20.5339 13.8887 21.1045V27.2934C13.8887 27.864 14.3475 28.3266 14.9134 28.3266C15.4793 28.3266 15.9381 27.864 15.9381 27.2934V21.1045Z" fill="#3D3344"/>
<path d="M63.0252 0.210293H18.7931C18.5749 0.20661 18.3572 0.233618 18.1464 0.290538H18.7135C18.4104 0.282532 18.1086 0.334828 17.8256 0.444437C17.5425 0.554047 17.2836 0.718822 17.0637 0.929347C16.8438 1.13987 16.6672 1.39202 16.544 1.67138C16.4208 1.95074 16.3534 2.25184 16.3457 2.55748V33.7229C16.3457 34.0469 16.409 34.3678 16.532 34.6672C16.655 34.9666 16.8353 35.2386 17.0625 35.4677C17.2898 35.6968 17.5596 35.8786 17.8565 36.0026C18.1535 36.1266 18.4717 36.1904 18.7931 36.1904H63.0252C63.6743 36.1904 64.2968 35.9305 64.7558 35.4677C65.2148 35.005 65.4726 34.3773 65.4726 33.7229V2.67785C65.4726 2.02341 65.2148 1.39578 64.7558 0.933022C64.2968 0.470266 63.6743 0.210293 63.0252 0.210293Z" fill="white"/>
<path opacity="0.2" d="M65.4927 3.00942V34.1046C65.4927 34.759 65.2349 35.3867 64.7759 35.8494C64.3169 36.3122 63.6944 36.5722 63.0453 36.5722H32.4629C79.9085 36.5922 47.4756 8.96766 60.011 0.612083H62.9956C63.3157 0.604082 63.6343 0.659754 63.933 0.775919C64.2318 0.892084 64.5049 1.06646 64.7368 1.2891C64.9687 1.51173 65.1548 1.77825 65.2845 2.07343C65.4142 2.36861 65.485 2.68667 65.4927 3.00942Z" fill="#C9D2DF"/>
<path d="M27.0905 7.663H23.3498C23.2627 7.663 23.1792 7.62813 23.1176 7.56605C23.0561 7.50397 23.0215 7.41978 23.0215 7.33199C23.0215 7.2442 23.0561 7.16001 23.1176 7.09793C23.1792 7.03585 23.2627 7.00098 23.3498 7.00098H27.0905C27.1776 7.00098 27.2611 7.03585 27.3227 7.09793C27.3842 7.16001 27.4188 7.2442 27.4188 7.33199C27.4188 7.41978 27.3842 7.50397 27.3227 7.56605C27.2611 7.62813 27.1776 7.663 27.0905 7.663Z" fill="white"/>
<path d="M27.0905 19.9413H23.3498C23.2627 19.9413 23.1792 19.9065 23.1176 19.8444C23.0561 19.7823 23.0215 19.6981 23.0215 19.6103C23.0215 19.5225 23.0561 19.4383 23.1176 19.3762C23.1792 19.3142 23.2627 19.2793 23.3498 19.2793H27.0905C27.1776 19.2793 27.2611 19.3142 27.3227 19.3762C27.3842 19.4383 27.4188 19.5225 27.4188 19.6103C27.4188 19.6981 27.3842 19.7823 27.3227 19.8444C27.2611 19.9065 27.1776 19.9413 27.0905 19.9413Z" fill="white"/>
<path d="M27.0905 26.08H23.3498C23.2627 26.08 23.1792 26.0451 23.1176 25.983C23.0561 25.921 23.0215 25.8368 23.0215 25.749C23.0215 25.6612 23.0561 25.577 23.1176 25.5149C23.1792 25.4528 23.2627 25.418 23.3498 25.418H27.0905C27.1776 25.418 27.2611 25.4528 27.3227 25.5149C27.3842 25.577 27.4188 25.6612 27.4188 25.749C27.4188 25.8368 27.3842 25.921 27.3227 25.983C27.2611 26.0451 27.1776 26.08 27.0905 26.08Z" fill="white"/>
<path d="M18.9031 36.4411H16.3562C15.7106 36.4358 15.0932 36.1735 14.6385 35.7113C14.1838 35.2491 13.9287 34.6245 13.9287 33.9735V2.92849C13.9287 2.27406 14.1866 1.64642 14.6455 1.18367C15.1045 0.720911 15.727 0.460938 16.3761 0.460938H18.9031C18.5817 0.460938 18.2634 0.524763 17.9665 0.648769C17.6696 0.772775 17.3998 0.954534 17.1725 1.18367C16.9453 1.4128 16.765 1.68482 16.642 1.9842C16.519 2.28358 16.4557 2.60445 16.4557 2.92849V33.9735C16.4557 34.2976 16.519 34.6184 16.642 34.9178C16.765 35.2172 16.9453 35.4892 17.1725 35.7184C17.3998 35.9475 17.6696 36.1292 17.9665 36.2533C18.2634 36.3773 18.5817 36.4411 18.9031 36.4411Z" fill="#CFB0FF"/>
<path opacity="0.6" d="M15.0422 5.42676C15.3061 5.42676 15.5591 5.53244 15.7457 5.72055C15.9323 5.90866 16.0371 6.1638 16.0371 6.42983V10.6427C16.0371 10.9088 15.9323 11.1639 15.7457 11.352C15.5591 11.5401 15.3061 11.6458 15.0422 11.6458C14.7783 11.6458 14.5253 11.5401 14.3387 11.352C14.1521 11.1639 14.0473 10.9088 14.0473 10.6427V6.45992C14.0433 6.32569 14.0661 6.19201 14.1143 6.06681C14.1625 5.94162 14.2352 5.82746 14.3279 5.73111C14.4207 5.63475 14.5318 5.55817 14.6545 5.50589C14.7771 5.45361 14.909 5.4267 15.0422 5.42676Z" fill="#8647EA"/>
<path d="M61.2243 4.54344H18.4446C18.384 4.54344 18.3258 4.51914 18.2828 4.47587C18.2399 4.43261 18.2158 4.37392 18.2158 4.31274C18.2158 4.25155 18.2399 4.19287 18.2828 4.1496C18.3258 4.10634 18.384 4.08203 18.4446 4.08203H61.2243C61.2824 4.08689 61.3368 4.11304 61.3771 4.15554C61.4174 4.19805 61.4409 4.25396 61.4431 4.31274C61.4445 4.34172 61.4401 4.37069 61.4303 4.39798C61.4206 4.42527 61.4055 4.45035 61.3861 4.47178C61.3667 4.49321 61.3433 4.51057 61.3173 4.52287C61.2912 4.53516 61.263 4.54216 61.2342 4.54344H61.2243Z" fill="#3E3126"/>
<path d="M51.654 16.049H40.3323C40.2584 16.049 40.1875 16.0194 40.1353 15.9668C40.0831 15.9141 40.0537 15.8427 40.0537 15.7682C40.0537 15.6937 40.0831 15.6222 40.1353 15.5696C40.1875 15.5169 40.2584 15.4873 40.3323 15.4873H51.654C51.7278 15.4873 51.7987 15.5169 51.8509 15.5696C51.9032 15.6222 51.9325 15.6937 51.9325 15.7682C51.9325 15.8427 51.9032 15.9141 51.8509 15.9668C51.7987 16.0194 51.7278 16.049 51.654 16.049Z" fill="#3E3126"/>
<path d="M51.654 13.3607H40.3323C40.2599 13.356 40.1918 13.3249 40.1405 13.2732C40.0892 13.2215 40.0584 13.1528 40.0537 13.0799C40.0562 13.0062 40.0863 12.9362 40.1381 12.8841C40.1898 12.8319 40.2592 12.8015 40.3323 12.799H51.654C51.6892 12.7977 51.7244 12.8034 51.7575 12.8157C51.7906 12.8281 51.821 12.847 51.8469 12.8712C51.8727 12.8954 51.8936 12.9245 51.9083 12.9569C51.923 12.9893 51.9312 13.0242 51.9325 13.0598C51.9338 13.098 51.9277 13.1361 51.9144 13.1719C51.9011 13.2077 51.881 13.2405 51.8551 13.2685C51.8292 13.2964 51.7982 13.319 51.7636 13.3348C51.7291 13.3506 51.6918 13.3594 51.654 13.3607Z" fill="#3E3126"/>
<path d="M57.7028 18.8381H40.3323C40.2599 18.8334 40.1918 18.8023 40.1405 18.7506C40.0892 18.6989 40.0584 18.6302 40.0537 18.5572C40.0562 18.4835 40.0863 18.4135 40.1381 18.3614C40.1898 18.3093 40.2592 18.2789 40.3323 18.2764H57.7028C57.7759 18.2789 57.8453 18.3093 57.897 18.3614C57.9487 18.4135 57.9789 18.4835 57.9814 18.5572C57.9767 18.6302 57.9458 18.6989 57.8946 18.7506C57.8433 18.8023 57.7751 18.8334 57.7028 18.8381Z" fill="#3E3126"/>
<path d="M20.9523 3.21973C20.8145 3.21973 20.6799 3.17855 20.5654 3.1014C20.4508 3.02424 20.3616 2.91458 20.3089 2.78628C20.2562 2.65798 20.2424 2.5168 20.2692 2.3806C20.2961 2.24439 20.3624 2.11928 20.4598 2.02108C20.5572 1.92289 20.6813 1.85601 20.8164 1.82892C20.9515 1.80183 21.0915 1.81573 21.2188 1.86888C21.346 1.92202 21.4548 2.01202 21.5313 2.12749C21.6078 2.24295 21.6487 2.37871 21.6487 2.51758C21.6487 2.7038 21.5753 2.8824 21.4447 3.01407C21.3141 3.14575 21.137 3.21973 20.9523 3.21973ZM20.9523 2.08626C20.8388 2.08626 20.73 2.1317 20.6498 2.21259C20.5695 2.29348 20.5245 2.40319 20.5245 2.51758C20.527 2.63117 20.5729 2.7394 20.6526 2.81974C20.7323 2.90008 20.8396 2.94635 20.9523 2.9489C21.0084 2.9489 21.0641 2.93774 21.116 2.91607C21.1679 2.89439 21.215 2.86262 21.2548 2.82257C21.2945 2.78252 21.326 2.73497 21.3475 2.68264C21.369 2.63031 21.3801 2.57422 21.3801 2.51758C21.3801 2.40319 21.335 2.29348 21.2548 2.21259C21.1745 2.1317 21.0657 2.08626 20.9523 2.08626Z" fill="#3E3126"/>
<path d="M23.3693 3.21973C23.2315 3.21973 23.0969 3.17855 22.9824 3.1014C22.8678 3.02424 22.7786 2.91458 22.7259 2.78628C22.6732 2.65798 22.6594 2.5168 22.6862 2.3806C22.7131 2.24439 22.7794 2.11928 22.8768 2.02108C22.9742 1.92289 23.0983 1.85601 23.2334 1.82892C23.3685 1.80183 23.5085 1.81573 23.6358 1.86888C23.763 1.92202 23.8718 2.01202 23.9483 2.12749C24.0248 2.24295 24.0657 2.37871 24.0657 2.51758C24.0657 2.7038 23.9923 2.8824 23.8617 3.01407C23.7311 3.14575 23.554 3.21973 23.3693 3.21973ZM23.3693 2.08626C23.2558 2.08626 23.147 2.1317 23.0668 2.21259C22.9865 2.29348 22.9415 2.40319 22.9415 2.51758C22.9263 2.62971 22.9555 2.74335 23.0227 2.83399C23.0899 2.92464 23.1897 2.98502 23.3007 3.00213C23.4116 3.01924 23.5248 2.9917 23.6158 2.92545C23.7068 2.8592 23.7683 2.75955 23.7871 2.64798C23.7969 2.60507 23.7969 2.56049 23.7871 2.51758C23.7884 2.46225 23.7789 2.4072 23.7591 2.35558C23.7394 2.30395 23.7097 2.25677 23.6718 2.21671C23.6339 2.17666 23.5886 2.14452 23.5384 2.12213C23.4882 2.09975 23.4341 2.08756 23.3792 2.08626H23.3693Z" fill="#3E3126"/>
<path d="M25.7775 3.21973C25.6397 3.21973 25.5051 3.17855 25.3906 3.1014C25.276 3.02424 25.1868 2.91458 25.1341 2.78628C25.0814 2.65798 25.0676 2.5168 25.0944 2.3806C25.1213 2.24439 25.1876 2.11928 25.285 2.02108C25.3824 1.92289 25.5065 1.85601 25.6416 1.82892C25.7767 1.80183 25.9167 1.81573 26.044 1.86888C26.1712 1.92202 26.28 2.01202 26.3565 2.12749C26.433 2.24295 26.4739 2.37871 26.4739 2.51758C26.4739 2.7038 26.4005 2.8824 26.2699 3.01407C26.1393 3.14575 25.9622 3.21973 25.7775 3.21973ZM25.7775 2.08626C25.6666 2.08626 25.5604 2.13064 25.482 2.20965C25.4036 2.28866 25.3596 2.39582 25.3596 2.50755C25.3445 2.61968 25.3737 2.73332 25.4408 2.82396C25.508 2.9146 25.6079 2.97499 25.7188 2.9921C25.8298 3.00921 25.943 2.98167 26.034 2.91542C26.1249 2.84917 26.1865 2.74952 26.2053 2.63795C26.2151 2.59504 26.2151 2.55046 26.2053 2.50755C26.2053 2.45091 26.1942 2.39482 26.1727 2.34249C26.1512 2.29016 26.1197 2.24261 26.08 2.20256C26.0402 2.16251 25.9931 2.13074 25.9412 2.10906C25.8893 2.08738 25.8336 2.07623 25.7775 2.07623V2.08626Z" fill="#3E3126"/>
<path d="M9.61005 6.85053C9.92324 6.85053 10.1771 6.59455 10.1771 6.27878C10.1771 5.96301 9.92324 5.70703 9.61005 5.70703C9.29686 5.70703 9.04297 5.96301 9.04297 6.27878C9.04297 6.59455 9.29686 6.85053 9.61005 6.85053Z" fill="#3E3126"/>
<path d="M5.3122 25.5986C5.62539 25.5986 5.87927 25.3426 5.87927 25.0268C5.87927 24.7111 5.62539 24.4551 5.3122 24.4551C4.99901 24.4551 4.74512 24.7111 4.74512 25.0268C4.74512 25.3426 4.99901 25.5986 5.3122 25.5986Z" fill="#3E3126"/>
<path d="M8.76482 15.4372H8.66533C8.60695 15.4107 8.56093 15.3626 8.53684 15.3028C8.51276 15.2431 8.51245 15.1762 8.53599 15.1162L9.86913 11.9465C9.88942 11.8897 9.931 11.8431 9.98494 11.8169C10.0389 11.7906 10.1009 11.7868 10.1576 11.8061C10.214 11.8265 10.2602 11.8685 10.2862 11.9228C10.3122 11.9772 10.3161 12.0397 10.2969 12.097L8.95384 15.2667C8.9438 15.3114 8.9202 15.3518 8.88633 15.3824C8.85245 15.4129 8.80998 15.4321 8.76482 15.4372Z" fill="#3E3126"/>
<path d="M10.5353 13.8924H10.4358C10.3775 13.8659 10.3314 13.8178 10.3074 13.758C10.2833 13.6982 10.283 13.6314 10.3065 13.5714L11.0228 11.8762C11.0431 11.8194 11.0847 11.7728 11.1386 11.7466C11.1926 11.7203 11.2546 11.7164 11.3113 11.7358C11.369 11.7602 11.4148 11.8065 11.439 11.8646C11.4632 11.9227 11.4638 11.9881 11.4407 12.0467L10.7244 13.7419C10.7109 13.7829 10.6858 13.819 10.6522 13.8457C10.6186 13.8724 10.578 13.8887 10.5353 13.8924Z" fill="#3E3126"/>
<path opacity="0.6" d="M15.2014 14.5641C15.7343 14.5641 16.1664 14.1285 16.1664 13.5911C16.1664 13.0538 15.7343 12.6182 15.2014 12.6182C14.6684 12.6182 14.2363 13.0538 14.2363 13.5911C14.2363 14.1285 14.6684 14.5641 15.2014 14.5641Z" fill="#8647EA"/>
<path d="M25.6881 36.6923H18.6146C17.8792 36.6897 17.1747 36.394 16.6547 35.8697C16.1348 35.3455 15.8415 34.6352 15.8389 33.8938V2.79857C15.8415 2.05715 16.1348 1.34686 16.6547 0.822601C17.1747 0.29834 17.8792 0.00264321 18.6146 0L25.6881 0C25.7752 0 25.8587 0.0348745 25.9203 0.0969516C25.9818 0.159029 26.0164 0.243223 26.0164 0.331013C26.0164 0.418803 25.9818 0.502998 25.9203 0.565075C25.8587 0.627152 25.7752 0.662027 25.6881 0.662027H18.6146C18.0542 0.667259 17.5182 0.894038 17.1219 1.29359C16.7256 1.69314 16.5007 2.23354 16.4955 2.79857V33.8938C16.5007 34.4588 16.7256 34.9992 17.1219 35.3987C17.5182 35.7983 18.0542 36.0251 18.6146 36.0303H25.6881C25.7752 36.0303 25.8587 36.0652 25.9203 36.1272C25.9818 36.1893 26.0164 36.2735 26.0164 36.3613C26.0164 36.4491 25.9818 36.5333 25.9203 36.5954C25.8587 36.6574 25.7752 36.6923 25.6881 36.6923Z" fill="#3E3126"/>
<path d="M63.2243 36.6923H16.4652C15.7298 36.6897 15.0253 36.394 14.5053 35.8697C13.9854 35.3455 13.6921 34.6352 13.6895 33.8938V2.79857C13.6921 2.05715 13.9854 1.34686 14.5053 0.822601C15.0253 0.29834 15.7298 0.00264321 16.4652 0L63.2243 0C63.9596 0.00264321 64.6641 0.29834 65.1841 0.822601C65.7041 1.34686 65.9974 2.05715 66 2.79857V33.8938C65.9974 34.6352 65.7041 35.3455 65.1841 35.8697C64.6641 36.394 63.9596 36.6897 63.2243 36.6923ZM16.4652 0.702149C15.9047 0.707381 15.3688 0.93416 14.9725 1.33371C14.5762 1.73326 14.3513 2.27366 14.3461 2.83869V33.9339C14.3434 34.2171 14.3962 34.4981 14.5013 34.7607C14.6063 35.0234 14.7617 35.2626 14.9585 35.4647C15.1552 35.6669 15.3896 35.8279 15.6481 35.9387C15.9066 36.0495 16.1843 36.1079 16.4652 36.1105H63.2243C63.7847 36.1053 64.3207 35.8785 64.717 35.479C65.1132 35.0794 65.3382 34.539 65.3434 33.974V2.87881C65.346 2.5956 65.2933 2.31464 65.1882 2.05198C65.0831 1.78931 64.9277 1.55009 64.731 1.34796C64.5342 1.14584 64.2998 0.984772 64.0413 0.873963C63.7828 0.763154 63.5052 0.704772 63.2243 0.702149H16.4652Z" fill="#3E3126"/>
<path opacity="0.6" d="M1.46265 29.3799H1.4527C0.90874 29.3799 0.467773 29.8245 0.467773 30.3729V36.5518C0.467773 37.1003 0.90874 37.5449 1.4527 37.5449H1.46265C2.00661 37.5449 2.44757 37.1003 2.44757 36.5518V30.3729C2.44757 29.8245 2.00661 29.3799 1.46265 29.3799Z" fill="#8647EA"/>
<path d="M44.4212 48.9996H3.5716C2.62435 48.9996 1.7159 48.6202 1.0461 47.9449C0.376293 47.2695 0 46.3536 0 45.3986V9.41841C0 8.46336 0.376293 7.54742 1.0461 6.8721C1.7159 6.19678 2.62435 5.81738 3.5716 5.81738H7.85951C7.97561 5.81738 8.08695 5.86388 8.16904 5.94665C8.25114 6.02942 8.29726 6.14168 8.29726 6.25873C8.29726 6.37579 8.25114 6.48805 8.16904 6.57082C8.08695 6.65359 7.97561 6.70008 7.85951 6.70008H3.5716C2.85655 6.70008 2.17078 6.98648 1.66516 7.49626C1.15954 8.00605 0.87549 8.69746 0.87549 9.41841V45.3986C0.871542 45.7581 0.938365 46.1148 1.07209 46.4481C1.20581 46.7813 1.40378 47.0846 1.65453 47.3402C1.90528 47.5958 2.20384 47.7987 2.5329 47.9372C2.86197 48.0757 3.21502 48.147 3.5716 48.147H44.4212C44.5373 48.147 44.6486 48.1935 44.7307 48.2762C44.8128 48.359 44.8589 48.4713 44.8589 48.5883C44.8602 48.645 44.8505 48.7013 44.8302 48.7542C44.8099 48.807 44.7795 48.8553 44.7407 48.8963C44.7019 48.9373 44.6554 48.9701 44.604 48.993C44.5526 49.0159 44.4972 49.0284 44.4411 49.0297L44.4212 48.9996Z" fill="#3E3126"/>
<path d="M5.63117 48.8396C4.72695 48.837 3.86051 48.4737 3.22112 47.829C2.58174 47.1844 2.22137 46.3108 2.21875 45.3991V9.41896C2.23179 8.51427 2.59675 7.65094 3.23501 7.01492C3.87328 6.3789 4.73378 6.02109 5.63117 6.01855C5.70351 6.02327 5.77168 6.05438 5.82294 6.10606C5.8742 6.15775 5.90505 6.22648 5.90974 6.29941C5.90726 6.37311 5.87711 6.4431 5.8254 6.49524C5.77369 6.54738 5.70426 6.57777 5.63117 6.58027C4.87996 6.57758 4.15818 6.87452 3.62327 7.40632C3.08837 7.93811 2.78376 8.6616 2.77588 9.41896V45.3991C2.77457 45.7758 2.84687 46.1491 2.98866 46.4977C3.13044 46.8463 3.33893 47.1633 3.60222 47.4306C3.86551 47.6979 4.17845 47.9103 4.52316 48.0557C4.86788 48.2011 5.23762 48.2766 5.61127 48.2779C5.68362 48.2826 5.75178 48.3137 5.80304 48.3654C5.85431 48.4171 5.88516 48.4858 5.88984 48.5588C5.8878 48.6292 5.86045 48.6966 5.81287 48.7482C5.76529 48.7999 5.70072 48.8324 5.63117 48.8396Z" fill="#3E3126"/>
<path d="M35.845 8.69629H21.3397C20.8452 8.69629 20.4443 9.10047 20.4443 9.59905V21.8365C20.4443 22.3351 20.8452 22.7393 21.3397 22.7393H35.845C36.3395 22.7393 36.7404 22.3351 36.7404 21.8365V9.59905C36.7404 9.10047 36.3395 8.69629 35.845 8.69629Z" fill="#B29FBF"/>
<path d="M36.5316 9.53891V21.7764C36.5316 22.0185 36.4363 22.2506 36.2665 22.4218C36.0967 22.593 35.8664 22.6892 35.6263 22.6892H26.8018C31.5259 19.4646 34.9106 14.6028 36.3128 9.02734C36.4425 9.167 36.5199 9.34791 36.5316 9.53891Z" fill="#7C6887"/>
<path d="M35.8154 23.071H21.34C21.0287 23.071 20.7301 22.9463 20.5099 22.7243C20.2897 22.5023 20.1661 22.2013 20.1661 21.8874V9.67998C20.1647 9.52454 20.1938 9.37037 20.2516 9.22626C20.3094 9.08215 20.3948 8.95093 20.5029 8.84008C20.6109 8.72924 20.7396 8.64095 20.8816 8.58025C21.0235 8.51956 21.1759 8.48764 21.3301 8.48633H35.8154C36.1294 8.48633 36.4306 8.61209 36.6526 8.83594C36.8746 9.0598 36.9993 9.3634 36.9993 9.67998V21.8974C36.9941 22.2105 36.8671 22.509 36.6456 22.7285C36.4242 22.948 36.126 23.071 35.8154 23.071ZM21.3201 9.02799C21.1564 9.03313 21.001 9.10166 20.8861 9.21935C20.7712 9.33703 20.7058 9.49482 20.7033 9.65992V21.8974C20.7058 22.0625 20.7712 22.2203 20.8861 22.338C21.001 22.4556 21.1564 22.5242 21.3201 22.5293H35.8154C35.9817 22.5293 36.1411 22.4627 36.2586 22.3442C36.3762 22.2257 36.4422 22.065 36.4422 21.8974V9.67998C36.4449 9.59532 36.4306 9.51099 36.4003 9.43199C36.37 9.35299 36.3243 9.28093 36.2658 9.22011C36.2074 9.15929 36.1374 9.11094 36.06 9.07793C35.9826 9.04493 35.8995 9.02794 35.8154 9.02799H21.3201Z" fill="#3E3126"/>
</g>
<defs>
<clipPath id="clip0_2_15230">
<rect width="66" height="49" fill="white"/>
</clipPath>
</defs>
</svg>
